<svg width="24" height="24" viewBox="0 0 24 24" fill="none" xmlns="http://www.w3.org/2000/svg">
<g id="Group">
<g id="Group_2">
<path id="Path" d="M7.496 21H9V19.964C9 19.964 8.983 18.343 9.874 16.973C7.843 16.831 6.231 15.019 6.231 12.782C6.231 11.997 6.529 11.265 7.04 10.635L7.092 8.702C7.105 8.211 7.596 7.876 8.058 8.043L10.133 8.793C10.719 8.647 11.346 8.564 12 8.564C12.654 8.564 13.281 8.647 13.867 8.794L15.942 8.044C16.404 7.877 16.895 8.212 16.908 8.703L16.96 10.635C17.47 11.265 17.769 11.997 17.769 12.782C17.769 15.019 16.157 16.831 14.126 16.973C15.017 18.343 15 19.964 15 19.964V21H16.504C18.987 21 21 18.987 21 16.505V7.496C21 5.013 18.987 3 16.504 3H7.5C5.015 3 3 5.015 3 7.5V16.504C3 18.987 5.013 21 7.496 21" stroke="#FF4A3F" stroke-width="1.5" stroke-linecap="round" stroke-linejoin="round"/>
</g>
</g>
</svg>
