<?xml version="1.0" standalone="no"?>
<!DOCTYPE svg PUBLIC "-//W3C//DTD SVG 20010904//EN"
 "http://www.w3.org/TR/2001/REC-SVG-20010904/DTD/svg10.dtd">
<svg version="1.0" xmlns="http://www.w3.org/2000/svg"
 width="1850.000000pt" height="922.000000pt" viewBox="0 0 1850.000000 922.000000"
 preserveAspectRatio="xMidYMid meet">

<g transform="translate(0.000000,922.000000) scale(0.100000,-0.100000)"
fill="#000000" stroke="none">
<path d="M0 4610 l0 -4610 1555 0 1555 0 3 1363 2 1362 3 -1362 2 -1363 515 0
515 0 0 140 0 140 1085 0 1085 0 0 -140 0 -140 1520 0 1520 0 0 895 0 895
1080 0 1080 0 0 375 0 375 -190 0 c-120 0 -190 4 -190 10 0 6 70 10 190 10
l190 0 0 205 0 205 -4077 0 c-3268 -1 -4085 -3 -4113 -14 -59 -21 -130 -76
-161 -124 -16 -25 -29 -51 -29 -58 0 -7 24 -20 54 -28 85 -25 211 -93 263
-142 l48 -46 -50 36 c-114 82 -314 173 -323 146 -2 -6 -9 -4 -17 4 -15 14
-122 32 -133 22 -3 -3 5 -17 18 -31 13 -14 21 -27 18 -30 -6 -7 -68 61 -68 75
0 5 24 16 54 24 71 21 84 19 21 -3 l-50 -18 73 -9 74 -10 23 45 c28 56 84 111
145 142 l45 24 4092 3 4092 2 4 153 c1 83 4 -587 5 -1490 l2 -1643 115 0 115
0 2 855 3 855 33 32 32 33 1565 0 1565 0 32 -33 33 -32 3 -855 2 -855 115 0
115 0 0 455 0 455 -77 1 c-43 1 -91 5 -108 10 -20 5 -6 6 42 3 40 -3 88 -2
107 2 l36 6 -2 1187 -3 1186 -23 58 c-33 81 -116 168 -200 209 l-67 33 -1570
0 -1570 0 -68 -33 c-38 -19 -90 -56 -119 -85 -38 -38 -46 -43 -29 -19 29 42
89 86 161 121 l55 26 1570 0 1570 0 65 -32 c85 -42 137 -88 179 -158 63 -105
61 -47 61 -1327 1 -946 3 -1168 13 -1168 55 0 332 103 322 120 -3 4 -21 11
-41 15 -20 3 -34 8 -31 11 2 2 27 -1 56 -7 l51 -11 -32 -44 c-18 -25 -39 -50
-48 -57 -13 -11 -13 -10 0 8 8 11 23 30 34 42 26 31 17 29 -64 -12 -70 -35
-196 -75 -237 -75 l-23 0 0 -460 0 -460 1615 0 1615 0 0 4610 0 4610 -9250 0
-9250 0 0 -4610z m4490 4325 l0 -55 25 16 c80 52 164 -70 91 -132 -32 -28 -62
-30 -94 -8 -12 8 -22 10 -22 5 0 -6 -4 -11 -10 -11 -6 0 -10 47 -10 120 0 73
4 120 10 120 6 0 10 -25 10 -55z m10840 -185 l0 -240 -885 0 -885 0 0 240 0
240 885 0 885 0 0 -240z m-11608 213 c21 -19 24 -53 5 -53 -8 0 -22 9 -31 19
-13 14 -24 17 -39 12 -35 -13 -26 -34 23 -57 60 -29 70 -40 70 -74 0 -41 -44
-74 -90 -66 -48 8 -95 66 -53 66 9 0 24 -7 34 -16 24 -21 69 -11 69 15 0 14
-14 25 -46 37 -78 30 -95 66 -52 111 26 28 82 31 110 6z m-245 -1 c7 -5 16
-30 19 -56 l7 -48 -63 -59 -63 -59 -94 0 c-91 0 -94 1 -103 26 -23 60 -14 86
52 146 l63 57 85 1 c47 0 91 -4 97 -8z m353 -32 c0 -23 4 -30 20 -30 11 0 20
-5 20 -11 0 -6 -9 -13 -20 -16 -17 -5 -20 -14 -20 -64 0 -52 -2 -59 -20 -59
-18 0 -20 7 -20 60 0 47 -3 60 -15 60 -8 0 -15 7 -15 15 0 8 7 15 15 15 10 0
15 10 15 30 0 23 4 30 20 30 16 0 20 -7 20 -30z m590 0 c0 -20 5 -30 15 -30 8
0 15 -7 15 -15 0 -8 -7 -15 -15 -15 -12 0 -15 -13 -15 -60 0 -53 -2 -60 -20
-60 -18 0 -20 7 -20 60 0 47 -3 60 -15 60 -8 0 -15 6 -15 14 0 8 7 16 15 20 8
3 15 17 15 31 0 18 5 25 20 25 16 0 20 -7 20 -30z m790 4 c0 -17 6 -28 20 -31
11 -3 20 -9 20 -14 0 -5 -9 -9 -20 -9 -18 0 -20 -7 -20 -65 0 -37 -4 -65 -10
-65 -6 0 -10 27 -10 61 0 47 -4 65 -17 75 -17 13 -17 13 0 14 12 0 17 8 17 30
0 17 5 30 10 30 6 0 10 -12 10 -26z m-1217 -30 c10 -11 -5 -34 -22 -34 -29 0
-41 -22 -41 -72 0 -45 -2 -48 -25 -48 -24 0 -25 2 -25 76 l0 76 30 -4 c17 -3
33 -1 36 4 6 9 38 11 47 2z m331 -14 c16 -15 -4 -29 -34 -23 -36 7 -60 -10
-60 -42 0 -31 24 -49 58 -42 35 7 59 -5 40 -21 -38 -31 -116 -17 -132 23 -10
27 -6 69 8 87 26 34 93 44 120 18z m479 -9 c29 -29 25 -90 -8 -118 -29 -26
-55 -29 -88 -11 -56 29 -63 84 -17 130 26 25 36 29 63 24 18 -4 40 -15 50 -25z
m166 14 c31 -16 41 -33 41 -74 0 -61 -62 -96 -118 -67 -60 31 -58 111 3 144
27 15 41 15 74 -3z m152 5 c10 -6 19 -18 19 -27 0 -14 -3 -14 -21 3 -15 14
-24 16 -37 7 -26 -16 -20 -35 13 -46 40 -13 55 -26 55 -48 0 -44 -91 -63 -107
-23 -8 22 7 32 18 11 12 -20 42 -22 57 -4 14 16 3 32 -28 42 -52 16 -64 43
-33 77 18 20 36 23 64 8z m-1069 -51 c6 -95 68 -93 68 2 0 42 3 49 20 49 18 0
20 -7 20 -76 0 -72 -1 -75 -22 -73 -13 2 -29 0 -36 -5 -19 -12 -71 3 -82 24
-6 10 -10 44 -10 74 0 49 3 56 19 56 17 0 20 -8 23 -51z m6778 -54 c0 -21 5
-25 30 -25 25 0 30 4 30 25 0 14 5 25 10 25 6 0 10 -15 10 -32 1 -27 2 -30 11
-15 5 9 21 17 34 17 13 0 29 -8 34 -17 10 -17 10 -17 11 0 0 15 8 17 58 15
l57 -3 3 -42 c2 -26 -1 -43 -7 -43 -6 0 -11 18 -11 41 0 52 -24 48 -28 -4 -4
-50 -22 -47 -22 4 0 52 -24 48 -28 -4 -3 -40 -22 -51 -23 -14 l0 22 -9 -22
c-11 -28 -54 -31 -69 -5 -10 16 -10 16 -11 0 0 -10 -4 -18 -10 -18 -5 0 -10
14 -10 30 0 27 -3 30 -30 30 -27 0 -30 -3 -30 -30 0 -16 -4 -30 -10 -30 -6 0
-10 27 -10 60 0 33 4 60 10 60 6 0 10 -11 10 -25z m880 -7 c13 -25 13 -31 0
-55 -12 -22 -24 -29 -53 -31 l-37 -3 0 61 0 61 37 -3 c29 -2 41 -9 53 -30z
m80 22 c-13 -9 -13 -11 0 -19 8 -5 18 -7 23 -4 18 11 57 -7 57 -27 0 -16 -7
-20 -30 -20 -32 0 -41 -17 -14 -27 9 -3 20 0 24 8 5 7 12 10 15 7 12 -12 -5
-28 -29 -28 -32 0 -50 24 -42 55 4 14 2 25 -4 25 -5 0 -10 -18 -10 -40 0 -54
-20 -51 -22 3 l-1 42 -4 -42 c-5 -57 -23 -55 -23 2 0 32 4 45 14 45 8 0 16 7
20 15 3 8 13 15 23 15 15 0 16 -2 3 -10z m1070 -5 c7 -9 10 -19 6 -23 -4 -4
-12 1 -17 11 -15 25 -48 21 -61 -8 -16 -35 4 -78 34 -73 28 4 36 35 11 41 -12
3 -8 5 10 6 22 1 27 -3 27 -23 0 -25 -16 -36 -55 -36 -25 0 -55 33 -55 60 0 9
7 26 16 38 18 26 65 30 84 7z m130 -17 c0 -29 1 -30 13 -14 18 25 61 18 65
-11 3 -20 -1 -23 -27 -23 -23 0 -29 -4 -25 -15 7 -18 31 -20 37 -2 2 6 8 9 12
5 12 -12 -5 -28 -30 -28 -13 0 -29 8 -34 18 -10 16 -10 16 -11 0 0 -10 -4 -18
-10 -18 -6 0 -10 27 -10 60 0 33 4 60 10 60 6 0 10 -14 10 -32z m-1792 -10
c21 -21 13 -38 -18 -38 -30 0 -40 -13 -19 -26 6 -3 16 -1 22 5 17 17 31 13 17
-4 -25 -30 -70 -11 -70 30 0 25 18 45 40 45 9 0 21 -5 28 -12z m720 1 c-12 -6
-18 -22 -18 -44 0 -19 -4 -35 -10 -35 -5 0 -10 20 -10 45 0 42 2 45 28 45 23
-1 24 -2 10 -11z m80 -1 c9 -9 12 -9 12 0 0 20 67 15 75 -5 6 -17 7 -17 16 -1
7 13 21 17 49 16 40 -1 40 -1 40 -43 0 -42 0 -42 -40 -43 -28 -1 -42 3 -49 16
-10 16 -10 16 -11 0 0 -34 -19 -18 -22 20 -2 25 -8 37 -18 37 -10 0 -16 -12
-18 -37 -2 -21 -7 -38 -13 -38 -5 0 -9 5 -9 10 0 6 -8 5 -20 -2 -25 -16 -54
-1 -58 31 -6 41 38 67 66 39z m275 0 c4 -10 7 -10 18 0 16 15 46 16 55 1 4 -7
0 -9 -14 -5 -11 4 -23 2 -27 -3 -3 -6 5 -13 19 -17 29 -7 40 -28 23 -43 -7 -5
-42 -9 -77 -8 -53 2 -65 5 -68 20 -2 12 7 22 29 31 21 9 27 16 19 21 -6 4 -17
2 -23 -4 -17 -17 -31 -13 -17 4 15 18 57 20 63 3z m681 -4 c3 -9 6 -29 6 -45
0 -29 -2 -30 -37 -27 -51 4 -57 33 -12 52 21 9 27 16 19 21 -6 4 -17 2 -23 -4
-17 -17 -31 -13 -17 4 16 20 56 19 64 -1z m196 -29 c0 -25 -4 -45 -10 -45 -5
0 -10 18 -10 41 0 52 -24 48 -28 -4 -5 -52 -22 -46 -22 8 0 45 0 45 35 45 35
0 35 0 35 -45z m74 33 c3 -7 7 -28 10 -46 6 -33 6 -33 -32 -30 -29 2 -38 8
-40 24 -2 16 4 23 22 28 15 3 26 11 26 16 0 14 -28 12 -33 -2 -2 -7 -8 -10
-12 -6 -12 12 5 28 31 28 14 0 26 -6 28 -12z m-7244 -1763 l0 -35 -95 0 -95 0
0 -45 0 -45 80 0 80 0 0 -35 0 -35 -80 0 -80 0 0 -85 0 -85 -45 0 -45 0 0 200
0 200 140 0 140 0 0 -35z m980 -20 c0 -52 1 -55 25 -55 21 0 25 -5 25 -30 0
-25 -4 -30 -25 -30 -25 0 -25 -1 -25 -91 l0 -91 26 6 c24 6 25 5 22 -26 -3
-31 -5 -33 -48 -36 -76 -5 -84 8 -88 132 -4 96 -6 106 -23 106 -14 0 -19 7
-19 30 0 23 4 30 20 30 16 0 20 7 20 30 0 23 8 35 37 55 21 14 41 25 45 25 5
0 8 -25 8 -55z m1430 -145 l0 -200 -40 0 c-29 0 -40 4 -40 15 0 12 -6 11 -32
-5 -121 -74 -234 89 -161 232 26 53 114 75 161 42 l22 -15 0 65 0 66 45 0 45
0 0 -200z m460 0 l0 -200 -40 0 c-30 0 -40 4 -40 16 0 13 -5 12 -26 -5 -35
-28 -93 -27 -129 1 -79 62 -73 219 9 274 26 16 81 16 119 0 15 -7 17 -1 17 53
l0 61 45 0 45 0 0 -200z m2150 0 l0 -200 -40 0 -40 0 0 200 0 200 40 0 40 0 0
-200z m140 165 c0 -35 0 -35 -45 -35 -45 0 -45 0 -45 35 0 35 0 35 45 35 45 0
45 0 45 -35z m920 -165 l0 -200 -40 0 c-29 0 -40 4 -40 15 0 12 -6 11 -32 -5
-121 -74 -234 89 -161 232 26 53 114 75 161 42 l22 -15 0 65 0 66 45 0 45 0 0
-200z m-5862 91 c10 -6 11 -17 4 -42 -8 -30 -12 -34 -39 -31 -45 4 -55 -16
-61 -123 l-5 -95 -38 0 -39 0 0 145 0 145 40 0 c25 0 40 -5 40 -12 0 -8 6 -6
17 5 18 18 59 22 81 8z m240 -11 c47 -29 72 -76 72 -135 0 -124 -122 -194
-231 -133 -46 26 -69 70 -69 135 0 88 63 153 150 153 27 0 58 -8 78 -20z m335
9 c38 -17 47 -51 47 -174 l0 -115 -40 0 -40 0 0 93 c0 97 -13 139 -43 145 -10
2 -27 -4 -38 -14 -16 -15 -19 -31 -19 -121 l0 -103 -45 0 -45 0 0 145 0 145
40 0 c30 0 40 -4 40 -16 0 -13 5 -12 26 5 29 23 79 27 117 10z m926 -23 c16
-16 34 -47 40 -71 20 -78 23 -75 -89 -75 -90 0 -99 -2 -93 -17 18 -52 58 -67
88 -33 19 21 60 26 84 11 19 -12 -1 -47 -42 -71 -70 -43 -174 -14 -203 55 -31
75 -6 181 50 217 46 29 127 21 165 -16z m313 23 c34 -18 48 -70 48 -184 l0
-105 -45 0 -45 0 0 110 c0 98 -2 110 -19 120 -28 14 -38 13 -61 -10 -17 -17
-20 -33 -20 -120 l0 -100 -45 0 -45 0 0 145 0 145 40 0 c30 0 40 -4 40 -16 0
-13 4 -12 28 5 30 22 91 28 124 10z m1075 -9 c37 -22 58 -58 68 -117 l7 -43
-101 0 c-56 0 -101 -2 -101 -5 0 -2 5 -16 12 -30 16 -36 56 -44 79 -17 18 22
37 26 76 16 21 -6 22 -8 8 -35 -45 -86 -202 -76 -241 16 -18 44 -18 116 0 160
29 68 126 96 193 55z m292 7 c14 -6 33 -26 44 -44 l18 -32 -36 -7 c-29 -5 -41
-2 -59 15 -23 21 -42 26 -70 15 -33 -13 -14 -32 52 -49 69 -19 122 -58 122
-90 0 -29 -30 -74 -60 -90 -38 -20 -113 -19 -156 1 -42 20 -74 72 -52 85 24
16 67 10 78 -11 20 -37 100 -38 100 -1 0 14 -15 22 -67 35 -37 9 -77 26 -90
38 -41 38 -23 116 31 138 32 13 118 11 145 -3z m311 -2 c25 -13 60 -60 60 -79
0 -3 -16 -8 -37 -12 -32 -6 -39 -4 -55 20 -23 31 -51 33 -78 6 -15 -15 -20
-33 -20 -75 0 -42 5 -60 20 -75 29 -29 58 -25 78 10 18 31 52 39 82 20 22 -14
-11 -75 -51 -96 -50 -25 -131 -15 -169 21 -75 72 -55 229 34 265 34 14 105 11
136 -5z m308 -5 c47 -29 72 -76 72 -135 0 -124 -122 -194 -231 -133 -46 26
-69 70 -69 135 0 88 63 153 150 153 27 0 58 -8 78 -20z m333 1 c23 -19 24 -19
48 0 37 30 96 25 132 -10 29 -29 29 -30 29 -150 l0 -121 -45 0 -44 0 -3 111
c-3 92 -6 114 -20 123 -13 8 -22 6 -37 -8 -19 -17 -21 -31 -21 -123 l0 -103
-45 0 -45 0 0 108 c0 107 -7 132 -37 132 -7 0 -22 -9 -33 -20 -17 -17 -20 -33
-20 -120 l0 -100 -45 0 -45 0 0 145 0 145 40 0 c30 0 40 -4 40 -16 0 -13 5
-12 26 5 34 27 94 28 125 2z m480 3 c18 -9 38 -32 50 -57 62 -138 -43 -283
-161 -222 l-30 16 0 -66 0 -65 -40 0 -40 0 0 200 0 200 40 0 c22 0 40 -5 40
-10 0 -6 12 -4 28 4 35 20 76 20 113 0z m604 -14 c49 -46 42 -80 -17 -80 -18
0 -29 6 -33 20 -10 31 -53 37 -78 11 -31 -30 -30 -122 0 -153 28 -27 70 -18
79 17 6 26 26 31 71 19 19 -5 20 -9 12 -34 -18 -50 -53 -73 -117 -77 -98 -7
-152 47 -152 152 0 105 54 159 152 152 43 -2 64 -9 83 -27z m286 1 c28 -29 29
-32 29 -134 0 -58 3 -112 6 -121 5 -13 -2 -16 -34 -16 -22 0 -42 5 -44 11 -3
8 -14 7 -35 -5 -78 -40 -153 -4 -153 72 0 51 29 77 105 94 44 10 61 18 63 32
8 37 -47 49 -75 16 -31 -36 -91 -21 -78 19 11 37 63 61 128 61 51 0 62 -4 88
-29z m631 4 c52 -39 74 -105 57 -170 -19 -71 -76 -115 -152 -115 -148 0 -202
204 -77 288 29 20 45 23 90 20 35 -3 66 -11 82 -23z m447 -9 c16 -16 34 -47
40 -71 20 -78 23 -75 -89 -75 -90 0 -99 -2 -93 -17 18 -52 58 -67 88 -33 19
21 60 26 84 11 19 -12 -1 -47 -42 -71 -70 -43 -174 -14 -203 55 -31 75 -6 181
50 217 46 29 127 21 165 -16z m-1639 -121 l0 -145 -45 0 -45 0 0 145 0 145 45
0 45 0 0 -145z m-3810 0 l0 -35 -80 0 -80 0 0 35 0 35 80 0 80 0 0 -35z m230
-615 l0 -200 -40 0 c-30 0 -40 4 -40 16 0 13 -5 12 -26 -5 -35 -28 -93 -27
-129 1 -79 62 -73 219 9 274 26 16 81 16 119 0 15 -7 17 -1 17 53 l0 61 45 0
45 0 0 -200z m140 165 c0 -35 0 -35 -45 -35 -45 0 -45 0 -45 35 0 35 0 35 45
35 45 0 45 0 45 -35z m630 -20 c0 -52 1 -55 25 -55 21 0 25 -5 25 -30 0 -25
-4 -30 -25 -30 -25 0 -25 -1 -25 -91 l0 -91 26 6 c24 6 25 5 22 -26 -3 -31 -5
-33 -48 -36 -76 -5 -84 8 -88 132 -4 96 -6 106 -23 106 -14 0 -19 7 -19 30 0
23 4 30 20 30 16 0 20 7 20 30 0 23 8 35 37 55 21 14 41 25 45 25 5 0 8 -25 8
-55z m2370 0 c0 -52 1 -55 25 -55 21 0 25 -5 25 -30 0 -25 -4 -30 -25 -30 -25
0 -25 -1 -25 -91 l0 -91 26 6 c24 6 25 5 22 -26 -3 -31 -5 -33 -48 -36 -76 -5
-84 8 -88 132 -4 96 -6 106 -23 106 -14 0 -19 7 -19 30 0 23 4 30 20 30 16 0
20 7 20 30 0 23 8 35 37 55 21 14 41 25 45 25 5 0 8 -25 8 -55z m507 -43 c-12
-169 -16 -192 -42 -192 -29 0 -33 16 -41 168 l-7 122 48 0 48 0 -6 -98z
m-3278 -11 c11 -7 11 -15 1 -45 -11 -33 -15 -37 -39 -31 -43 9 -55 -14 -59
-121 l-4 -94 -39 0 -39 0 0 145 0 145 40 0 c25 0 40 -5 40 -12 0 -8 6 -6 17 5
18 18 59 22 82 8z m230 -25 c16 -16 34 -47 40 -71 20 -78 23 -75 -89 -75 -90
0 -99 -2 -93 -17 18 -52 58 -67 88 -33 19 21 60 26 84 11 19 -12 -1 -47 -42
-71 -70 -43 -174 -14 -203 55 -31 75 -6 181 50 217 46 29 127 21 165 -16z
m469 14 c47 -29 72 -76 72 -135 0 -124 -122 -194 -231 -133 -46 26 -69 70 -69
135 0 88 63 153 150 153 27 0 58 -8 78 -20z m451 5 c38 -19 41 -30 41 -140 0
-52 4 -105 10 -119 9 -25 9 -26 -34 -26 -25 0 -46 5 -48 12 -3 8 -11 7 -28 -5
-47 -32 -128 -16 -149 30 -26 56 4 115 66 129 82 18 103 26 103 37 0 38 -62
50 -82 17 -13 -21 -52 -26 -76 -11 -19 11 4 58 37 76 34 19 125 19 160 0z
m309 -5 c47 -29 72 -76 72 -135 0 -124 -122 -194 -231 -133 -46 26 -69 70 -69
135 0 88 63 153 150 153 27 0 58 -8 78 -20z m472 4 c82 -49 89 -197 13 -264
-39 -34 -94 -40 -131 -14 l-22 15 0 -65 0 -66 -45 0 -45 0 0 200 0 200 40 0
c30 0 40 -4 40 -16 0 -13 5 -12 26 5 32 25 85 27 124 5z m321 -7 c125 -83 68
-287 -80 -287 -94 0 -155 61 -155 155 0 63 26 111 74 136 49 26 118 25 161 -4z
m332 12 c38 -17 47 -51 47 -174 l0 -115 -40 0 -40 0 0 93 c0 97 -13 139 -43
145 -10 2 -27 -4 -38 -14 -16 -15 -19 -31 -19 -121 l0 -103 -45 0 -45 0 0 145
0 145 40 0 c30 0 40 -4 40 -16 0 -13 5 -12 26 5 29 23 79 27 117 10z m485 -9
c47 -29 72 -76 72 -135 0 -124 -122 -194 -231 -133 -46 26 -69 70 -69 135 0
88 63 153 150 153 27 0 58 -8 78 -20z m-3298 -135 l0 -145 -45 0 -45 0 0 145
0 145 45 0 45 0 0 -145z m3510 -105 l0 -40 -45 0 -45 0 0 40 0 40 45 0 45 0 0
-40z m-4440 -542 l25 -63 3 48 c3 44 5 47 31 47 34 0 51 -17 51 -50 0 -30 -17
-50 -42 -50 -11 0 -18 -7 -18 -20 0 -11 -4 -20 -10 -20 -5 0 -10 9 -10 20 0
11 -6 20 -14 20 -8 0 -18 9 -21 20 -4 13 -15 20 -32 20 -16 0 -27 -7 -30 -20
-5 -20 -23 -28 -23 -11 0 23 44 121 54 121 6 0 22 -28 36 -62z m450 -3 c0 -64
0 -65 -27 -65 -49 0 -70 31 -53 76 8 21 15 25 35 22 19 -4 25 -1 25 13 0 11 5
19 10 19 6 0 10 -28 10 -65z m370 0 c0 -65 0 -65 -28 -65 -37 0 -52 17 -52 56
0 24 5 34 20 39 11 3 24 3 30 0 5 -3 10 3 10 14 0 12 5 21 10 21 6 0 10 -28
10 -65z m580 0 c0 -37 -4 -65 -10 -65 -6 0 -10 28 -10 65 0 37 4 65 10 65 6 0
10 -28 10 -65z m453 -4 c1 -41 -2 -61 -10 -61 -13 0 -22 95 -10 116 14 24 18
11 20 -55z m201 54 c-14 -10 -15 -14 -4 -15 11 0 11 -3 2 -12 -7 -7 -12 -29
-12 -50 0 -21 -4 -38 -10 -38 -5 0 -10 18 -10 41 0 33 -3 40 -17 37 -12 -2
-20 -16 -24 -43 -6 -39 -6 -39 -8 13 -1 49 0 52 24 52 14 0 28 7 31 15 4 8 16
15 27 15 20 0 20 0 1 -15z m736 -50 c0 -62 -1 -65 -24 -65 -36 0 -56 10 -56
28 0 12 -4 11 -20 -6 -36 -38 -80 -23 -80 28 0 14 5 31 12 38 19 19 56 14 69
-10 l12 -22 9 23 c6 18 14 22 33 19 19 -4 25 -1 25 13 0 11 5 19 10 19 6 0 10
-28 10 -65z m700 0 c0 -64 0 -65 -27 -65 -49 0 -70 31 -53 76 8 21 15 25 35
22 19 -4 25 -1 25 13 0 11 5 19 10 19 6 0 10 -28 10 -65z m270 0 c0 -37 -4
-65 -10 -65 -6 0 -10 28 -10 65 0 37 4 65 10 65 6 0 10 -28 10 -65z m43 35 c8
0 7 -4 -1 -12 -7 -7 -12 -24 -12 -38 0 -14 5 -31 12 -38 9 -9 8 -12 -4 -12
-12 0 -17 12 -20 48 -4 50 3 103 10 70 2 -10 9 -18 15 -18z m457 -35 c0 -37
-4 -65 -10 -65 -6 0 -10 28 -10 65 0 37 4 65 10 65 6 0 10 -28 10 -65z m130 0
c0 -65 0 -65 -28 -65 -37 0 -52 17 -52 56 0 24 5 34 20 39 11 3 24 3 30 0 5
-3 10 3 10 14 0 12 5 21 10 21 6 0 10 -28 10 -65z m190 0 c0 -64 0 -65 -27
-65 -49 0 -70 31 -53 76 8 21 15 25 35 22 19 -4 25 -1 25 13 0 11 5 19 10 19
6 0 10 -28 10 -65z m-4410 25 c0 -5 -7 -10 -15 -10 -11 0 -15 -11 -15 -40 0
-22 -4 -40 -10 -40 -5 0 -10 23 -10 50 0 47 2 50 25 50 14 0 25 -4 25 -10z
m78 -2 c23 -23 13 -38 -24 -38 -24 0 -34 -4 -31 -12 2 -7 18 -12 36 -11 26 1
30 -1 20 -13 -27 -32 -72 -9 -72 36 0 44 42 67 71 38z m100 -40 c2 -29 -1 -48
-7 -48 -6 0 -11 17 -11 38 0 21 -3 42 -7 45 -13 13 -33 -16 -33 -49 0 -19 -4
-34 -10 -34 -5 0 -10 22 -10 49 l0 49 38 -1 c37 -2 37 -2 40 -49z m190 2 l3
-46 -38 1 c-50 0 -59 30 -14 46 17 6 31 15 31 19 0 16 -21 23 -33 11 -17 -17
-31 -13 -17 5 8 8 25 14 39 12 23 -3 26 -8 29 -48z m140 -2 l3 -46 -38 1 c-31
2 -39 6 -41 25 -2 16 2 22 15 22 10 0 25 5 33 10 13 9 13 11 0 19 -9 7 -19 6
-27 -1 -16 -13 -28 -4 -18 12 4 6 21 10 38 8 30 -3 32 -5 35 -50z m232 33 c15
-29 13 -31 -25 -31 -36 0 -44 -10 -22 -28 8 -7 18 -7 27 -2 23 15 34 12 20 -5
-36 -43 -96 7 -72 60 14 31 56 34 72 6z m85 8 c10 -15 -3 -24 -18 -11 -8 7
-18 7 -27 2 -12 -7 -8 -12 18 -21 25 -9 32 -16 30 -33 -2 -16 -10 -21 -32 -21
-16 0 -31 6 -34 13 -3 11 0 12 15 4 12 -7 25 -7 34 -2 11 8 7 12 -18 22 -31
11 -42 35 -26 51 10 11 51 8 58 -4z m95 -8 c15 -29 13 -31 -25 -31 -36 0 -44
-10 -22 -28 8 -7 18 -7 27 -2 23 15 34 12 20 -5 -36 -43 -96 7 -72 60 14 31
56 34 72 6z m92 6 c11 -18 10 -87 -2 -87 -5 0 -10 17 -10 38 0 43 -6 53 -26
45 -9 -3 -14 -20 -14 -44 0 -21 -4 -39 -10 -39 -5 0 -10 22 -10 48 0 48 0 49
32 50 18 0 36 -5 40 -11z m43 -17 c4 -16 10 -30 15 -30 5 0 11 14 15 30 4 17
11 30 16 30 12 0 12 2 -7 -53 -9 -26 -20 -47 -24 -47 -4 0 -15 21 -24 47 -19
55 -19 53 -7 53 5 0 12 -13 16 -30z m133 18 c7 -7 12 -24 12 -38 0 -30 -16
-50 -41 -50 -23 0 -49 27 -49 50 0 39 52 64 78 38z m83 -25 l12 -38 12 34 c6
19 16 36 22 38 7 3 4 -15 -7 -44 -10 -26 -22 -49 -27 -50 -5 -2 -16 19 -25 47
-9 27 -12 50 -8 50 5 0 14 -17 21 -37z m139 18 c15 -29 13 -31 -25 -31 -24 0
-35 -5 -35 -14 0 -19 21 -26 44 -14 14 8 17 7 14 -4 -6 -18 -46 -23 -64 -8
-17 15 -19 61 -2 78 18 18 56 14 68 -7z m58 8 c-12 -7 -18 -22 -18 -49 0 -22
-4 -40 -10 -40 -5 0 -10 23 -10 50 0 48 1 50 28 50 23 -1 24 -2 10 -11z m69
-66 c-2 -16 -4 -3 -4 27 0 30 2 43 4 28 2 -16 2 -40 0 -55z m95 64 c11 -18 10
-87 -2 -87 -5 0 -10 17 -10 38 0 43 -6 53 -26 45 -9 -3 -14 -20 -14 -44 0 -21
-4 -39 -10 -39 -5 0 -10 22 -10 48 0 48 0 49 32 50 18 0 36 -5 40 -11z m136 1
c22 -22 13 -37 -25 -40 -36 -3 -36 -4 -19 -21 13 -13 22 -15 29 -8 14 14 27
14 27 1 0 -16 -49 -23 -65 -10 -31 26 -13 90 25 90 9 0 21 -5 28 -12z m202
-39 l6 -47 -41 2 c-32 1 -40 5 -40 20 0 13 11 23 33 30 25 9 30 14 21 23 -8 8
-18 9 -31 2 -10 -5 -18 -6 -18 -1 0 16 14 23 40 20 22 -3 26 -9 30 -49z m88
33 c3 -11 0 -12 -15 -3 -35 18 -61 -32 -30 -58 11 -8 19 -6 35 8 12 10 22 25
22 33 0 38 62 52 80 19 15 -29 13 -31 -25 -31 -24 0 -35 -5 -35 -14 0 -19 21
-26 44 -14 14 8 17 7 14 -4 -7 -20 -47 -22 -68 -3 -16 14 -18 14 -23 0 -7 -17
-34 -20 -56 -6 -8 5 -14 24 -14 41 0 17 6 36 14 41 19 12 51 7 57 -9z m172 3
c14 -16 0 -21 -16 -5 -5 5 -15 6 -24 0 -12 -7 -8 -12 18 -21 25 -9 32 -16 30
-33 -4 -27 -49 -34 -69 -10 -13 16 -12 17 6 10 32 -12 37 -12 42 1 2 7 -7 15
-21 19 -25 6 -35 32 -19 47 11 12 40 8 53 -8z m192 1 c11 -16 9 -86 -2 -86 -5
0 -10 17 -10 38 0 21 -3 42 -7 45 -13 13 -33 -16 -33 -49 0 -19 -4 -34 -10
-34 -5 0 -10 18 -10 40 0 29 -4 40 -15 40 -11 0 -15 -11 -15 -40 0 -22 -4 -40
-10 -40 -5 0 -10 22 -10 50 l0 49 58 -1 c31 -1 60 -6 64 -12z m276 2 c22 -22
13 -37 -25 -40 -36 -3 -36 -4 -19 -21 13 -13 22 -15 29 -8 14 14 27 14 27 1 0
-16 -49 -23 -65 -10 -31 26 -13 90 25 90 9 0 21 -5 28 -12z m154 -2 c11 -17 9
-86 -2 -86 -5 0 -10 17 -10 38 0 43 -6 53 -26 45 -9 -3 -14 -20 -14 -44 0 -21
-4 -39 -10 -39 -5 0 -10 20 -10 45 0 42 -2 45 -19 35 -13 -6 -21 -23 -24 -48
-3 -30 -4 -28 -5 15 l-2 53 58 -1 c31 -1 60 -7 64 -13z m98 -37 l6 -47 -41 2
c-32 1 -40 5 -40 20 0 13 11 23 33 30 25 9 30 14 21 23 -8 8 -18 9 -31 2 -10
-5 -18 -6 -18 -1 0 16 14 23 40 20 22 -3 26 -9 30 -49z m85 40 c10 -15 -3 -24
-18 -11 -8 7 -18 7 -27 2 -12 -7 -8 -12 18 -21 25 -9 32 -16 30 -33 -2 -16
-10 -21 -32 -21 -16 0 -31 6 -34 13 -3 11 0 12 15 4 12 -7 25 -7 34 -2 11 8 7
12 -18 22 -31 11 -42 35 -26 51 10 11 51 8 58 -4z m133 -1 c22 -22 13 -37 -25
-40 -36 -3 -36 -4 -19 -21 13 -13 22 -15 29 -8 14 14 27 14 27 1 0 -16 -49
-23 -65 -10 -31 26 -13 90 25 90 9 0 21 -5 28 -12z m242 -7 c15 -29 13 -31
-25 -31 -24 0 -35 -5 -35 -14 0 -19 21 -26 44 -14 14 8 17 7 14 -4 -6 -18 -46
-23 -64 -8 -17 15 -19 61 -2 78 18 18 56 14 68 -7z m138 -31 l3 -46 -38 1
c-50 0 -59 30 -14 46 17 6 31 15 31 19 0 16 -21 23 -33 11 -17 -17 -31 -13
-17 5 8 8 25 14 39 12 23 -3 26 -8 29 -48z m170 38 c7 -7 12 -28 12 -48 0 -35
-2 -37 -32 -38 -18 0 -38 4 -45 9 -15 14 -6 39 16 39 9 0 23 5 31 10 13 9 13
11 0 19 -9 7 -19 6 -27 -1 -15 -13 -28 -4 -18 11 8 15 48 14 63 -1z m141 -63
c-1 -38 -4 -60 -6 -47 -3 15 -11 22 -28 22 -38 0 -60 61 -33 88 7 7 25 11 40
10 28 -2 28 -2 27 -73z m41 37 c0 -43 6 -53 26 -45 9 3 14 20 14 44 0 21 5 39
10 39 6 0 10 -22 10 -49 l0 -49 -37 1 c-38 2 -38 2 -41 50 -2 28 1 47 7 47 6
0 11 -17 11 -38z m150 -13 l6 -47 -41 2 c-32 1 -40 5 -40 20 0 13 11 23 33 30
25 9 30 14 21 23 -8 8 -18 9 -31 2 -10 -5 -18 -6 -18 -1 0 16 14 23 40 20 22
-3 26 -9 30 -49z m67 -26 c-2 -16 -4 -3 -4 27 0 30 2 43 4 28 2 -16 2 -40 0
-55z m191 27 l3 -46 -38 1 c-50 0 -59 30 -14 46 17 6 31 15 31 19 0 16 -21 23
-33 11 -17 -17 -31 -13 -17 5 8 8 25 14 39 12 23 -3 26 -8 29 -48z m192 31
c15 -29 13 -31 -25 -31 -24 0 -35 -5 -35 -14 0 -19 21 -26 44 -14 14 8 17 7
14 -4 -6 -18 -46 -23 -64 -8 -17 15 -19 61 -2 78 18 18 56 14 68 -7z m135 8
c10 -15 -3 -25 -16 -12 -18 18 -39 3 -39 -27 0 -52 46 -39 65 19 8 25 50 38
70 21 18 -15 20 -61 3 -78 -16 -16 -43 -15 -61 3 -13 13 -16 13 -27 0 -27 -32
-70 -10 -70 35 0 14 5 31 12 38 15 15 55 16 63 1z m231 -44 c2 -48 2 -48 -5
-10 -4 27 -12 41 -23 43 -15 3 -18 -4 -18 -37 0 -23 -4 -41 -10 -41 -5 0 -10
17 -10 38 0 21 -3 42 -7 45 -13 13 -33 -16 -33 -49 0 -19 -4 -34 -10 -34 -5 0
-10 22 -10 49 l0 49 63 -2 62 -1 1 -50z m-4273 -254 c1 -41 -2 -61 -10 -61
-13 0 -22 95 -10 116 14 24 18 11 20 -55z m72 59 c-3 -5 -10 -10 -16 -10 -5 0
-9 5 -9 10 0 6 7 10 16 10 8 0 12 -4 9 -10z m370 0 c-3 -5 -11 -10 -16 -10 -6
0 -7 5 -4 10 3 6 11 10 16 10 6 0 7 -4 4 -10z m458 -20 c8 0 7 -4 -1 -12 -16
-16 -15 -60 1 -77 10 -10 8 -12 -8 -9 -16 2 -21 13 -25 51 -6 47 10 103 18 65
2 -10 9 -18 15 -18z m377 -35 c0 -65 0 -65 -28 -65 -37 0 -52 17 -52 56 0 24
5 34 20 39 11 3 24 3 30 0 5 -3 10 3 10 14 0 12 5 21 10 21 6 0 10 -28 10 -65z
m790 55 c0 -5 -4 -10 -10 -10 -5 0 -10 5 -10 10 0 6 5 10 10 10 6 0 10 -4 10
-10z m133 -59 c1 -41 -2 -61 -10 -61 -13 0 -22 95 -10 116 14 24 18 11 20 -55z
m357 4 c0 -37 -4 -65 -10 -65 -6 0 -10 28 -10 65 0 37 4 65 10 65 6 0 10 -28
10 -65z m43 35 c8 0 7 -4 -1 -12 -7 -7 -12 -24 -12 -38 0 -14 5 -31 12 -38 9
-9 8 -12 -4 -12 -12 0 -17 12 -20 48 -4 50 3 103 10 70 2 -10 9 -18 15 -18z
m481 -2 c8 -5 7 -8 -1 -8 -8 0 -13 -13 -13 -33 0 -18 6 -39 13 -46 10 -10 8
-12 -8 -9 -16 2 -21 13 -25 51 -6 47 8 98 18 67 3 -8 10 -18 16 -22z m806 -33
c0 -64 0 -65 -27 -65 -49 0 -70 31 -53 76 8 21 15 25 35 22 19 -4 25 -1 25 13
0 11 5 19 10 19 6 0 10 -28 10 -65z m-4490 -37 c0 -39 -4 -68 -10 -68 -5 0
-10 9 -10 20 0 13 -7 20 -18 20 -25 0 -42 20 -42 50 0 34 18 50 52 48 28 -2
28 -3 28 -70z m40 34 c0 -21 3 -42 7 -45 13 -13 33 16 33 49 0 19 5 34 10 34
6 0 10 -22 10 -49 l0 -49 -37 1 c-38 2 -38 2 -41 50 -2 28 1 47 7 47 6 0 11
-17 11 -38z m150 19 c15 -29 13 -31 -25 -31 -24 0 -35 -5 -35 -14 0 -19 21
-26 44 -14 14 8 17 7 14 -4 -6 -18 -46 -23 -64 -8 -17 15 -19 61 -2 78 18 18
56 14 68 -7z m142 5 c11 -16 9 -86 -2 -86 -5 0 -10 17 -10 38 0 21 -3 42 -7
45 -13 13 -33 -16 -33 -49 0 -19 -4 -34 -10 -34 -5 0 -10 18 -10 40 0 29 -4
40 -15 40 -11 0 -15 -11 -15 -40 0 -22 -4 -40 -10 -40 -5 0 -10 22 -10 50 l0
49 58 -1 c31 -1 60 -6 64 -12z m138 -5 c15 -29 13 -31 -25 -31 -36 0 -44 -10
-22 -28 8 -7 18 -7 27 -2 23 15 34 12 20 -5 -36 -43 -96 7 -72 60 14 31 56 34
72 6z m85 8 c10 -15 -3 -24 -18 -11 -8 7 -18 7 -27 2 -12 -7 -8 -12 18 -21 25
-9 32 -16 30 -33 -2 -16 -10 -21 -32 -21 -16 0 -31 6 -34 13 -3 11 0 12 15 4
12 -7 25 -7 34 -2 11 8 7 12 -18 22 -31 11 -42 35 -26 51 10 11 51 8 58 -4z
m143 -41 l3 -46 -38 1 c-31 2 -39 6 -41 25 -2 16 2 22 15 22 10 0 25 5 33 10
13 9 13 11 0 19 -9 7 -19 6 -27 -1 -16 -13 -28 -4 -18 12 4 6 21 10 38 8 30
-3 32 -5 35 -50z m134 39 c11 -18 10 -87 -2 -87 -5 0 -10 17 -10 38 0 43 -6
53 -26 45 -9 -3 -14 -20 -14 -44 0 -21 -4 -39 -10 -39 -5 0 -10 22 -10 48 0
48 0 49 32 50 18 0 36 -5 40 -11z m98 -38 l6 -47 -41 2 c-32 1 -40 5 -40 20 0
13 11 23 33 30 25 9 30 14 21 23 -8 8 -18 9 -31 2 -10 -5 -18 -6 -18 -1 0 16
14 23 40 20 22 -3 26 -9 30 -49z m138 1 l3 -46 -38 1 c-50 0 -59 30 -14 46 17
6 31 15 31 19 0 16 -21 23 -33 11 -17 -17 -31 -13 -17 5 8 8 25 14 39 12 23
-3 26 -8 29 -48z m60 39 c-12 -7 -18 -22 -18 -49 0 -22 -4 -40 -10 -40 -5 0
-10 23 -10 50 0 48 1 50 28 50 23 -1 24 -2 10 -11z m92 -8 c15 -29 13 -31 -25
-31 -24 0 -35 -5 -35 -14 0 -19 21 -26 44 -14 14 8 17 7 14 -4 -6 -18 -46 -23
-64 -8 -17 15 -19 61 -2 78 18 18 56 14 68 -7z m88 7 c7 -7 12 -28 12 -48 0
-35 -2 -37 -32 -38 -18 0 -38 4 -45 9 -15 14 -6 39 16 39 9 0 23 5 31 10 13 9
13 11 0 19 -9 7 -19 6 -27 -1 -15 -13 -28 -4 -18 11 8 15 48 14 63 -1z m140 0
c7 -7 12 -28 12 -48 0 -35 -2 -37 -32 -38 -18 0 -38 4 -45 9 -15 14 -6 39 16
39 9 0 23 5 31 10 13 9 13 11 0 19 -9 7 -19 6 -27 -1 -15 -13 -28 -4 -18 11 8
15 48 14 63 -1z m94 -66 c15 -18 29 -1 38 45 8 38 8 38 9 -13 l1 -51 -32 1
c-33 1 -33 2 -34 51 -1 33 0 38 3 15 3 -19 9 -41 15 -48z m146 26 l3 -46 -38
1 c-31 2 -39 6 -41 25 -2 16 2 22 15 22 10 0 25 5 33 10 13 9 13 11 0 19 -9 7
-19 6 -27 -1 -16 -13 -28 -4 -18 12 4 6 21 10 38 8 30 -3 32 -5 35 -50z m88
-3 c1 -33 0 -38 -3 -15 -9 72 -48 73 -56 2 -3 -31 -4 -28 -5 14 l-2 51 33 -1
c32 -1 32 -2 33 -51z m196 30 c16 -35 -3 -75 -35 -75 -30 0 -47 18 -47 50 0
52 61 71 82 25z m133 14 c10 -15 -3 -25 -16 -12 -18 18 -39 3 -39 -27 0 -53
47 -40 64 17 9 27 50 40 71 23 8 -7 15 -25 15 -40 0 -15 -7 -33 -15 -40 -17
-14 -65 -6 -65 11 0 6 -7 3 -16 -5 -39 -39 -90 6 -66 59 12 26 55 35 67 14z
m231 -44 c2 -48 2 -48 -5 -10 -4 27 -12 41 -23 43 -15 3 -18 -4 -18 -37 0 -23
-4 -41 -10 -41 -5 0 -10 17 -10 38 0 21 -3 42 -7 45 -13 13 -33 -16 -33 -49 0
-19 -4 -34 -10 -34 -5 0 -10 22 -10 49 l0 49 63 -2 62 -1 1 -50z m145 34 c17
-33 3 -69 -31 -76 -21 -4 -30 -11 -30 -24 0 -11 -4 -19 -10 -19 -6 0 -10 29
-10 68 l0 69 35 1 c26 1 37 -4 46 -19z m57 10 c-12 -7 -18 -22 -18 -49 0 -22
-4 -40 -10 -40 -5 0 -10 23 -10 50 0 48 1 50 28 50 23 -1 24 -2 10 -11z m92
-10 c26 -47 -26 -101 -65 -69 -18 15 -20 61 -3 78 19 19 56 14 68 -9z m40 -33
c0 -65 -7 -86 -28 -86 -12 0 -13 3 -4 12 7 7 12 38 12 70 0 32 4 58 10 58 6 0
10 -24 10 -54z m78 42 c22 -22 13 -37 -25 -40 -36 -3 -36 -4 -19 -21 13 -13
22 -15 29 -8 14 14 27 14 27 1 0 -16 -49 -23 -65 -10 -31 26 -13 90 25 90 9 0
21 -5 28 -12z m141 -2 c31 -37 -9 -103 -46 -80 -37 23 -24 94 17 94 10 0 23
-6 29 -14z m89 -4 c3 -11 0 -12 -16 -3 -14 7 -23 8 -27 1 -3 -6 5 -14 18 -19
33 -13 42 -28 27 -46 -14 -17 -56 -20 -65 -4 -11 16 3 23 19 10 15 -13 36 -7
36 10 0 5 -6 9 -13 9 -7 0 -22 6 -32 14 -17 12 -17 16 -5 30 15 19 51 18 58
-2z m142 -33 l6 -47 -41 2 c-32 1 -40 5 -40 20 0 13 11 23 33 30 25 9 30 14
21 23 -8 8 -18 9 -31 2 -10 -5 -18 -6 -18 -1 0 16 14 23 40 20 22 -3 26 -9 30
-49z m168 39 c7 -7 12 -28 12 -48 0 -35 -2 -37 -32 -38 -18 0 -38 4 -45 9 -15
14 -6 39 16 39 9 0 23 5 31 10 13 9 13 11 0 19 -9 7 -19 6 -27 -1 -15 -13 -28
-4 -18 11 8 15 48 14 63 -1z m148 -43 c2 -48 2 -48 -5 -10 -4 27 -12 41 -23
43 -15 3 -18 -4 -18 -37 0 -23 -4 -41 -10 -41 -5 0 -10 17 -10 38 0 21 -3 42
-7 45 -13 13 -33 -16 -33 -49 0 -19 -4 -34 -10 -34 -5 0 -10 22 -10 49 l0 49
63 -2 62 -1 1 -50z m92 43 c23 -23 13 -38 -24 -38 -24 0 -34 -4 -31 -12 2 -7
18 -12 36 -11 26 1 30 -1 20 -13 -27 -32 -72 -9 -72 36 0 44 42 67 71 38z
m100 -40 c2 -29 -1 -48 -7 -48 -6 0 -11 17 -11 38 0 21 -3 42 -7 45 -13 13
-33 -16 -33 -49 0 -19 -4 -34 -10 -34 -5 0 -10 22 -10 49 l0 49 38 -1 c37 -2
37 -2 40 -49z m142 33 c15 -29 13 -31 -25 -31 -24 0 -35 -5 -35 -14 0 -19 21
-26 44 -14 14 8 17 7 14 -4 -6 -18 -46 -23 -64 -8 -17 15 -19 61 -2 78 18 18
56 14 68 -7z m110 9 c0 -5 -6 -9 -12 -7 -9 1 -14 -13 -16 -40 -4 -60 -22 -54
-22 7 0 47 2 50 25 50 14 0 25 -4 25 -10z m80 -9 c15 -29 13 -31 -25 -31 -36
0 -44 -10 -22 -28 8 -7 18 -7 27 -2 23 15 34 12 20 -5 -36 -43 -96 7 -72 60
14 31 56 34 72 6z m92 6 c11 -18 10 -87 -2 -87 -5 0 -10 17 -10 38 0 43 -6 53
-26 45 -9 -3 -14 -20 -14 -44 0 -21 -4 -39 -10 -39 -5 0 -10 22 -10 48 0 48 0
49 32 50 18 0 36 -5 40 -11z m100 -12 c16 -35 -3 -75 -35 -75 -30 0 -47 18
-47 50 0 52 61 71 82 25z m146 -27 c2 -29 -1 -48 -7 -48 -6 0 -11 18 -11 39 0
68 -34 60 -43 -9 -4 -33 -4 -33 -5 8 -2 35 -5 42 -22 42 -17 0 -20 -7 -20 -40
0 -22 -4 -40 -10 -40 -5 0 -10 22 -10 49 l0 48 63 -1 62 -1 3 -47z m92 1 l6
-47 -41 2 c-32 1 -40 5 -40 20 0 13 11 23 33 30 25 9 30 14 21 23 -8 8 -18 9
-31 2 -10 -5 -18 -6 -18 -1 0 16 14 23 40 20 22 -3 26 -9 30 -49z m190 30 c26
-47 -26 -101 -65 -69 -18 15 -20 61 -3 78 19 19 56 14 68 -9z m80 6 c14 -16 0
-21 -16 -5 -5 5 -15 6 -24 0 -12 -7 -8 -12 18 -21 25 -9 32 -16 30 -33 -4 -27
-49 -34 -69 -10 -13 16 -12 17 6 10 32 -12 37 -12 42 1 2 7 -7 15 -21 19 -25
6 -35 32 -19 47 11 12 40 8 53 -8z m-5373 -62 c-3 -10 -5 -2 -5 17 0 19 2 27
5 18 2 -10 2 -26 0 -35z m5423 -13 c0 -5 -4 -10 -10 -10 -5 0 -10 5 -10 10 0
6 5 10 10 10 6 0 10 -4 10 -10z m-5270 -395 c13 -14 21 -25 18 -25 -2 0 -15
11 -28 25 -13 14 -21 25 -18 25 2 0 15 -11 28 -25z m4160 -255 l0 -240 -1285
0 -1285 0 0 240 0 240 1285 0 1285 0 0 -240z m-3979 111 c159 -89 395 -135
658 -129 l121 3 -37 18 c-21 9 -29 15 -18 11 11 -3 37 -8 58 -11 20 -3 37 -9
37 -12 0 -6 -40 -22 -120 -47 -8 -3 1 4 20 15 l35 21 -100 -6 c-287 -18 -619
70 -760 201 l-50 47 50 -40 c28 -22 75 -54 106 -71z m5023 -1213 c-10 -18 -23
-51 -30 -73 -7 -22 -13 -31 -13 -20 -1 21 44 125 54 125 3 0 -2 -15 -11 -32z
m1166 -208 c5 0 12 5 15 10 10 16 44 11 65 -10 24 -24 26 -57 3 -82 -18 -20
-68 -24 -79 -7 -4 8 -9 7 -15 -2 -5 -8 -8 25 -7 81 1 52 3 76 5 53 2 -24 8
-43 13 -43z m-572 58 c15 -15 16 -38 1 -38 -6 0 -17 7 -26 15 -12 12 -18 13
-29 4 -17 -14 -10 -24 37 -47 40 -20 48 -46 23 -73 -28 -31 -104 -19 -104 16
0 18 14 19 39 3 23 -14 53 -4 45 16 -3 8 -17 17 -32 21 -37 9 -52 24 -52 49 0
31 19 46 55 46 17 0 36 -5 43 -12z m-174 -14 c15 -39 5 -67 -36 -105 -41 -37
-46 -38 -114 -39 -57 0 -73 3 -78 16 -13 35 -4 60 36 101 42 43 43 43 114 43
56 0 73 -3 78 -16z m256 -4 c0 -11 5 -20 10 -20 6 0 10 -7 10 -15 0 -8 -4 -15
-10 -15 -5 0 -10 -20 -10 -45 0 -33 -4 -45 -15 -45 -11 0 -15 12 -15 45 0 25
-4 45 -10 45 -5 0 -10 7 -10 15 0 8 5 15 10 15 6 0 10 9 10 20 0 11 7 20 15
20 8 0 15 -9 15 -20z m430 0 c0 -11 5 -20 10 -20 6 0 10 -7 10 -15 0 -8 -4
-15 -10 -15 -5 0 -10 -20 -10 -45 0 -33 -4 -45 -15 -45 -11 0 -15 12 -15 45 0
25 -4 45 -10 45 -5 0 -10 7 -10 15 0 8 5 15 10 15 6 0 10 9 10 20 0 11 7 20
15 20 8 0 15 -9 15 -20z m596 -20 c8 0 14 -4 14 -10 0 -5 -7 -10 -15 -10 -11
0 -15 -13 -17 -52 l-2 -53 -3 50 c-3 27 -10 53 -16 58 -9 7 -9 10 1 14 6 2 13
14 13 26 2 22 2 22 6 0 2 -13 11 -23 19 -23z m1734 30 c0 -6 -40 -10 -100 -10
-60 0 -100 4 -100 10 0 6 40 10 100 10 60 0 100 -4 100 -10z m-2644 -41 c3 -5
-6 -13 -20 -19 -22 -8 -26 -16 -26 -50 0 -29 -4 -40 -15 -40 -12 0 -15 13 -15
58 l0 58 35 1 c19 1 38 -3 41 -8z m42 -38 c3 -37 6 -42 25 -39 18 2 23 11 25
46 2 28 8 42 18 42 11 0 14 -14 14 -59 l0 -59 -42 0 c-57 -1 -68 11 -68 70 0
62 24 62 28 -1z m198 34 c20 -15 17 -17 -31 -19 -25 -1 -30 -5 -30 -26 0 -22
5 -25 38 -28 32 -3 36 -6 26 -18 -16 -19 -58 -18 -81 3 -25 23 -23 68 4 87 28
20 49 20 74 1z m354 -5 c24 -24 25 -48 4 -78 -31 -44 -104 -20 -104 35 0 57
61 82 100 43z m126 12 c26 -17 35 -51 22 -80 -11 -23 -20 -27 -53 -27 -32 0
-42 5 -51 24 -13 26 -3 69 19 83 15 10 49 10 63 0z m122 -10 c3 -9 -3 -11 -21
-7 -35 9 -44 -13 -10 -26 35 -13 44 -28 32 -51 -12 -22 -52 -24 -69 -3 -14 17
0 21 16 5 12 -12 44 -3 44 11 0 5 -12 14 -27 20 -35 13 -44 28 -32 52 12 21
60 20 67 -1z m1802 -12 c0 -6 -40 -10 -100 -10 -60 0 -100 4 -100 10 0 6 40
10 100 10 60 0 100 -4 100 -10z m0 -60 c0 -6 -40 -10 -100 -10 -60 0 -100 4
-100 10 0 6 40 10 100 10 60 0 100 -4 100 -10z m-12603 -282 c-3 -8 -6 -5 -6
6 -1 11 2 17 5 13 3 -3 4 -12 1 -19z m212 -35 c0 -27 -3 -42 -6 -35 -2 6 -10
9 -16 6 -8 -5 -8 -2 1 7 17 18 15 29 -5 30 -17 1 -17 2 0 6 9 2 17 11 17 19 0
8 2 14 5 14 3 0 5 -21 4 -47z m-282 15 c-3 -8 -6 -5 -6 6 -1 11 2 17 5 13 3
-3 4 -12 1 -19z m326 2 c-3 -12 -8 -19 -11 -16 -5 6 5 36 12 36 2 0 2 -9 -1
-20z m64 -12 c-3 -7 -5 -2 -5 12 0 14 2 19 5 13 2 -7 2 -19 0 -25z m-186 -21
c4 -16 3 -25 -2 -21 -5 3 -9 14 -9 26 0 14 -5 18 -16 14 -9 -3 -12 -2 -9 5 11
16 28 5 36 -24z m-71 15 c0 -4 -9 -8 -19 -8 -11 0 -17 4 -15 8 3 4 12 8 20 8
8 0 14 -4 14 -8z m-143 -34 c-3 -7 -5 -2 -5 12 0 14 2 19 5 13 2 -7 2 -19 0
-25z m70 10 c-3 -8 -6 -5 -6 6 -1 11 2 17 5 13 3 -3 4 -12 1 -19z m43 -2 c0
-3 -4 -8 -10 -11 -5 -3 -10 -1 -10 4 0 6 5 11 10 11 6 0 10 -2 10 -4z m75 -16
c-3 -5 -12 -10 -18 -10 -7 0 -6 4 3 10 19 12 23 12 15 0z m-198 -52 c-3 -8 -6
-5 -6 6 -1 11 2 17 5 13 3 -3 4 -12 1 -19z m2856 -140 c11 17 63 15 81 -4 21
-20 20 -63 -1 -86 -18 -20 -68 -24 -79 -7 -4 8 -9 7 -15 -2 -5 -8 -8 27 -7 86
1 76 3 88 7 50 4 -31 9 -45 14 -37z m-599 56 c9 -8 16 -20 16 -25 0 -12 -27
-12 -35 1 -10 15 -42 12 -49 -5 -5 -14 27 -35 54 -35 5 0 17 -11 26 -25 15
-23 15 -27 0 -50 -12 -19 -25 -25 -51 -25 -32 0 -65 21 -65 41 0 12 27 12 35
-1 3 -5 17 -10 31 -10 35 0 33 36 -3 45 -34 8 -63 33 -63 53 0 44 72 69 104
36z m-186 -6 c25 -25 14 -71 -30 -115 l-42 -43 -77 0 c-83 0 -89 4 -89 58 0
18 14 38 48 69 45 40 50 42 113 43 38 0 70 -5 77 -12z m271 -14 c2 -10 8 -23
15 -27 8 -6 8 -10 -1 -14 -8 -3 -13 -24 -13 -54 0 -37 -4 -49 -15 -49 -11 0
-15 12 -15 45 0 31 -5 47 -17 55 -17 10 -17 10 0 20 9 6 17 20 17 31 0 26 24
20 29 -7z m441 1 c0 -16 6 -25 15 -25 8 0 15 -4 15 -9 0 -5 -7 -11 -15 -15
-10 -4 -15 -20 -15 -51 0 -33 -4 -45 -15 -45 -11 0 -15 12 -15 49 0 30 -5 52
-12 55 -10 5 -10 7 0 12 6 3 12 17 12 30 0 15 6 24 15 24 9 0 15 -9 15 -25z
m628 -25 c16 -1 15 -1 0 -11 -13 -7 -18 -24 -20 -62 l-2 -52 -3 50 c-2 29 -10
55 -19 61 -13 10 -13 12 1 18 8 3 16 16 16 28 2 19 3 18 6 -4 3 -18 11 -28 21
-28z m-72 -12 c10 -16 -4 -22 -20 -9 -16 13 -36 7 -36 -10 0 -6 14 -15 31 -21
25 -8 30 -15 27 -37 -2 -20 -9 -27 -32 -29 -29 -4 -55 12 -43 25 4 4 12 2 18
-4 6 -6 18 -9 25 -6 24 9 15 31 -16 42 -34 11 -41 44 -14 59 19 10 51 5 60
-10z m-876 -3 c0 -7 -10 -15 -22 -17 -19 -2 -24 -10 -26 -45 -2 -29 -8 -43
-18 -43 -11 0 -14 14 -14 59 l0 59 40 0 c27 1 40 -4 40 -13z m42 -27 c3 -38 6
-43 28 -43 22 0 25 5 28 43 2 28 8 42 18 42 11 0 14 -14 14 -59 l0 -58 -50 -2
c-58 -1 -70 13 -70 78 0 29 4 41 14 41 10 0 16 -14 18 -42z m216 23 c3 -10 -2
-13 -22 -9 -32 6 -59 -12 -54 -38 2 -14 12 -19 35 -20 39 0 53 -11 33 -24 -62
-40 -132 38 -83 92 20 22 84 21 91 -1z m368 -10 c13 -26 3 -69 -19 -83 -40
-25 -97 8 -97 56 0 56 92 77 116 27z m136 12 c40 -36 9 -103 -47 -103 -57 0
-81 60 -43 108 15 17 68 15 90 -5z m3875 -1 c13 12 23 17 23 11 0 -5 -9 -18
-20 -28 -20 -18 -21 -18 -45 8 -18 19 -19 21 -3 7 22 -20 22 -20 45 2z m1213
0 c23 21 23 20 -2 -7 -27 -28 -28 -28 -48 -10 -11 10 -20 23 -20 29 0 6 10 1
22 -12 l22 -22 26 22z m-3230 -12 c0 -6 -90 -10 -250 -10 -160 0 -250 4 -250
10 0 6 90 10 250 10 160 0 250 -4 250 -10z m920 0 c0 -6 -90 -10 -250 -10
-160 0 -250 4 -250 10 0 6 90 10 250 10 160 0 250 -4 250 -10z m910 0 c0 -6
-90 -10 -250 -10 -160 0 -250 4 -250 10 0 6 90 10 250 10 160 0 250 -4 250
-10z m1210 0 c0 -6 -90 -10 -250 -10 -160 0 -250 4 -250 10 0 6 90 10 250 10
160 0 250 -4 250 -10z m1773 -170 l55 -75 -140 -3 c-78 -1 -143 0 -146 2 -2 3
10 24 29 48 18 24 34 45 36 47 2 3 10 -4 17 -15 40 -56 55 -69 67 -57 9 9 7
18 -9 40 l-21 29 26 33 c14 17 27 31 28 29 2 -2 28 -37 58 -78z m850 0 l55
-75 -140 -3 c-78 -1 -143 0 -146 2 -2 3 10 24 29 48 18 24 34 45 36 47 2 3 10
-4 17 -15 40 -56 55 -69 67 -57 9 9 7 18 -9 40 l-21 29 26 33 c14 17 27 31 28
29 2 -2 28 -37 58 -78z m850 0 l55 -75 -140 -3 c-78 -1 -143 0 -146 2 -2 3 10
24 29 48 18 24 34 45 36 47 2 3 10 -4 17 -15 40 -56 55 -69 67 -57 9 9 7 18
-9 40 l-21 29 26 33 c14 17 27 31 28 29 2 -2 28 -37 58 -78z m850 0 l55 -75
-140 -3 c-78 -1 -143 0 -146 2 -2 3 10 24 29 48 18 24 34 45 36 47 2 3 10 -4
17 -15 40 -56 55 -69 67 -57 9 9 7 18 -9 40 l-21 29 26 33 c14 17 27 31 28 29
2 -2 28 -37 58 -78z m-7183 -850 c0 -7 -578 -10 -1715 -10 -1137 0 -1715 3
-1715 10 0 7 578 10 1715 10 1137 0 1715 -3 1715 -10z m7738 -112 c7 -7 12
-19 11 -27 0 -10 -4 -6 -10 8 -6 15 -15 21 -24 17 -8 -3 -15 -1 -15 4 0 14 24
12 38 -2z m431 -66 c-34 -10 -51 -57 -24 -65 11 -4 10 -4 -2 -3 -11 1 -18 9
-17 21 3 48 17 67 43 57 13 -5 13 -6 0 -10z m-387 -20 c-31 -32 -37 -32 -27
-3 3 12 10 19 15 16 5 -3 11 -1 15 5 3 5 10 10 15 10 5 0 -3 -13 -18 -28z m65
10 c-10 -10 -17 -25 -18 -33 0 -11 -2 -11 -6 -1 -5 12 23 52 35 52 3 0 -2 -8
-11 -18z m83 4 c0 -2 -7 -7 -16 -10 -8 -3 -12 -2 -9 4 6 10 25 14 25 6z m15
-17 c-3 -8 -15 -20 -27 -28 -20 -12 -20 -11 3 17 25 31 33 34 24 11z m149 13
c2 -4 -4 -8 -14 -8 -10 0 -16 4 -14 8 3 4 9 8 14 8 5 0 11 -4 14 -8z m355 -30
c-1 -15 -2 -14 -6 1 -5 18 -5 18 -26 0 l-22 -18 19 22 c20 24 37 22 35 -5z
m-429 9 c0 -5 -7 -12 -16 -15 -14 -5 -15 -4 -4 9 14 17 20 19 20 6z m309 -13
c-1 -19 -2 -19 -6 -5 -5 18 -6 18 -24 1 -10 -9 -19 -12 -19 -6 0 11 27 31 43
32 4 0 6 -10 6 -22z m174 4 c-10 -10 -20 -17 -22 -16 -6 5 20 34 30 34 5 0 1
-8 -8 -18z m94 12 c-3 -3 -12 -4 -19 -1 -8 3 -5 6 6 6 11 1 17 -2 13 -5z
m-540 -26 c-3 -8 -6 -5 -6 6 -1 11 2 17 5 13 3 -3 4 -12 1 -19z m184 -1 c-10
-9 -11 -8 -5 6 3 10 9 15 12 12 3 -3 0 -11 -7 -18z m293 8 c-4 -8 -11 -15 -16
-15 -6 0 -5 6 2 15 7 8 14 15 16 15 2 0 1 -7 -2 -15z m59 -8 c-3 -5 -11 -6
-19 -3 -8 3 -14 -1 -14 -11 0 -9 -3 -14 -6 -10 -12 12 4 33 24 33 11 0 18 -4
15 -9z m-9193 -187 c0 -7 -478 -10 -1415 -10 -937 0 -1415 3 -1415 10 0 7 478
10 1415 10 937 0 1415 -3 1415 -10z m-930 -420 c0 -7 -323 -10 -950 -10 -627
0 -950 3 -950 10 0 7 323 10 950 10 627 0 950 -3 950 -10z m2248 -142 c7 -7
12 -19 11 -27 0 -10 -4 -7 -9 7 -11 26 -25 28 -39 5 -12 -20 -14 -13 -5 11 7
19 25 21 42 4z m431 -66 c-34 -10 -51 -57 -24 -65 11 -4 10 -4 -2 -3 -11 1
-18 9 -17 21 3 48 17 67 43 57 13 -5 13 -6 0 -10z m-469 -8 c0 -2 -7 -4 -15
-4 -8 0 -15 4 -15 10 0 5 7 7 15 4 8 -4 15 -8 15 -10z m82 -12 c-31 -32 -37
-32 -27 -3 3 12 10 19 15 16 5 -3 11 -1 15 5 3 5 10 10 15 10 5 0 -3 -13 -18
-28z m65 10 c-10 -10 -17 -25 -18 -33 0 -11 -2 -11 -6 -1 -5 12 23 52 35 52 3
0 -2 -8 -11 -18z m83 4 c0 -2 -7 -7 -16 -10 -8 -3 -12 -2 -9 4 6 10 25 14 25
6z m15 -17 c-3 -8 -15 -20 -27 -28 -20 -12 -20 -11 3 17 25 31 33 34 24 11z
m149 13 c2 -4 -4 -8 -14 -8 -10 0 -16 4 -14 8 3 4 9 8 14 8 5 0 11 -4 14 -8z
m355 -30 c-1 -15 -2 -14 -6 1 -5 18 -5 18 -26 0 l-22 -18 19 22 c20 24 37 22
35 -5z m-429 9 c0 -5 -7 -12 -16 -15 -14 -5 -15 -4 -4 9 14 17 20 19 20 6z
m309 -13 c-1 -19 -2 -19 -6 -5 -5 18 -6 18 -24 1 -10 -9 -19 -12 -19 -6 0 11
27 31 43 32 4 0 6 -10 6 -22z m174 4 c-10 -10 -20 -17 -22 -16 -6 5 20 34 30
34 5 0 1 -8 -8 -18z m94 12 c-3 -3 -12 -4 -19 -1 -8 3 -5 6 6 6 11 1 17 -2 13
-5z m-540 -26 c-3 -8 -6 -5 -6 6 -1 11 2 17 5 13 3 -3 4 -12 1 -19z m184 -1
c-10 -9 -11 -8 -5 6 3 10 9 15 12 12 3 -3 0 -11 -7 -18z m293 8 c-4 -8 -11
-15 -16 -15 -6 0 -5 6 2 15 7 8 14 15 16 15 2 0 1 -7 -2 -15z m59 -8 c-3 -5
-11 -6 -19 -3 -8 3 -14 -1 -14 -11 0 -9 -3 -14 -6 -10 -12 12 4 33 24 33 11 0
18 -4 15 -9z m-395 -241 c-20 -6 -39 -14 -42 -17 -10 -10 149 -79 233 -101 56
-15 109 -20 201 -21 98 -1 116 -3 85 -10 -60 -13 -220 -1 -305 23 -41 12 -106
37 -144 56 -38 18 -71 33 -72 31 -2 -2 10 -21 27 -43 23 -29 19 -26 -15 11
-25 27 -46 53 -46 57 0 4 19 11 43 16 58 13 80 12 35 -2z m-2000 -114 l-1 -67
-6 65 -6 65 -17 -32 c-13 -24 -15 -33 -5 -36 7 -3 5 -6 -5 -6 -10 -1 -18 -6
-18 -13 0 -6 -3 -9 -6 -6 -9 9 46 109 56 103 6 -3 9 -36 8 -73z m-93 49 c-2
-5 -17 -6 -32 -3 l-28 6 25 6 c27 7 43 3 35 -9z m-107 -8 c-8 -10 -20 -27 -26
-38 -6 -11 -12 -15 -12 -9 0 12 38 64 47 64 3 0 -1 -8 -9 -17z m24 -25 c-6 -6
-7 0 -4 19 5 21 7 23 10 9 2 -10 0 -22 -6 -28z m65 -30 c-3 -7 -5 -2 -5 12 0
14 2 19 5 13 2 -7 2 -19 0 -25z m-130 -40 c-3 -7 -5 -2 -5 12 0 14 2 19 5 13
2 -7 2 -19 0 -25z"/>
<path d="M4530 8877 c-37 -18 -41 -80 -7 -102 65 -42 127 56 64 100 -26 18
-26 18 -57 2z"/>
<path d="M13810 8760 l0 -60 45 0 c25 0 45 5 45 10 0 6 -16 10 -35 10 -24 0
-35 5 -35 15 0 10 10 15 30 15 17 0 30 5 30 10 0 6 -13 10 -30 10 -20 0 -30 5
-30 15 0 10 11 15 35 15 19 0 35 5 35 10 0 6 -20 10 -45 10 l-45 0 0 -60z"/>
<path d="M14013 8806 c-9 -16 -20 -19 -57 -17 l-46 2 0 -46 c0 -33 4 -45 15
-45 10 0 15 11 15 35 0 19 5 35 10 35 6 0 10 -16 10 -35 0 -24 5 -35 15 -35
10 0 15 11 15 35 0 19 5 35 10 35 6 0 10 -16 10 -35 0 -33 2 -35 35 -35 33 0
35 2 35 34 0 32 2 34 35 33 42 -1 43 -4 9 -17 -40 -16 -28 -45 19 -47 l38 -1
-3 41 c-3 46 2 44 -105 46 -31 1 -42 5 -45 19 -3 15 -5 15 -15 -2z m37 -61 c0
-14 -4 -25 -10 -25 -5 0 -10 11 -10 25 0 14 5 25 10 25 6 0 10 -11 10 -25z
m100 -15 c0 -5 -4 -10 -10 -10 -5 0 -10 5 -10 10 0 6 5 10 10 10 6 0 10 -4 10
-10z"/>
<path d="M14821 8803 c-7 -13 -20 -17 -50 -14 l-41 3 0 -46 c0 -52 17 -63 22
-14 4 46 28 49 28 4 0 -25 4 -36 15 -36 10 0 15 11 16 38 l2 37 6 -35 6 -35
58 -1 57 -2 0 34 c0 19 5 34 10 34 6 0 10 -16 10 -35 0 -28 4 -35 20 -35 11 0
20 5 20 10 0 6 -4 10 -10 10 -14 0 -12 47 3 54 10 5 10 7 0 12 -7 3 -13 13
-13 22 -1 15 -2 15 -15 -2 -9 -12 -28 -19 -51 -20 -22 -1 -39 -7 -42 -15 -3
-10 2 -11 18 -6 15 5 20 4 16 -4 -4 -6 -12 -11 -18 -11 -6 0 -17 -8 -25 -17
-12 -16 -13 -15 -12 17 3 52 0 70 -11 70 -5 0 -13 -8 -19 -17z m89 -73 c0 -5
-5 -10 -11 -10 -5 0 -7 5 -4 10 3 6 8 10 11 10 2 0 4 -4 4 -10z"/>
<path d="M14190 8745 c0 -33 4 -45 15 -45 10 0 15 11 15 35 0 24 5 35 15 35 8
0 15 5 15 10 0 6 -13 10 -30 10 -29 0 -30 -2 -30 -45z"/>
<path d="M14289 8769 c-17 -34 4 -71 38 -67 14 2 28 9 31 17 3 9 -1 11 -16 7
-11 -4 -23 -2 -27 4 -4 6 6 10 24 10 24 0 31 -4 31 -20 0 -11 7 -20 15 -20 10
0 15 11 15 35 0 19 5 35 10 35 6 0 10 -16 10 -35 0 -24 5 -35 15 -35 10 0 15
11 15 35 0 19 5 35 10 35 6 0 10 -16 10 -35 0 -25 4 -35 16 -35 12 0 14 9 12
43 l-3 42 -62 3 c-59 2 -63 1 -64 -20 l0 -23 -9 23 c-12 29 -55 30 -71 1z m48
-5 c-3 -3 -12 -4 -19 -1 -8 3 -5 6 6 6 11 1 17 -2 13 -5z"/>
<path d="M14563 8784 c-7 -3 -13 -21 -13 -40 0 -28 4 -35 25 -40 15 -4 32 -1
41 6 11 10 18 10 26 2 15 -15 51 -15 66 0 28 28 7 78 -33 78 -25 0 -45 -18
-45 -41 0 -19 -40 -33 -54 -19 -16 16 2 42 25 35 15 -5 20 -3 17 6 -5 15 -35
21 -55 13z m127 -39 c0 -16 -6 -25 -15 -25 -9 0 -15 9 -15 25 0 16 6 25 15 25
9 0 15 -9 15 -25z"/>
<path d="M15012 8778 c-7 -7 -12 -21 -12 -33 0 -47 62 -63 81 -21 22 47 -33
90 -69 54z m48 -33 c0 -15 -6 -25 -14 -25 -16 0 -25 19 -18 38 8 22 32 13 32
-13z"/>
<path d="M4723 8880 c-48 -20 -53 -77 -8 -106 21 -13 28 -14 52 -2 39 18 45
78 11 102 -25 18 -25 18 -55 6z"/>
<path d="M4896 8869 c-46 -36 -24 -102 35 -102 59 0 80 65 33 102 -15 12 -30
21 -34 21 -4 0 -19 -9 -34 -21z"/>
<path d="M10935 8761 c-7 -23 3 -51 20 -51 7 0 16 7 19 16 9 23 -2 54 -19 54
-8 0 -16 -8 -20 -19z"/>
<path d="M11640 8760 c0 -44 3 -50 20 -50 29 0 47 42 32 75 -7 15 -20 25 -32
25 -17 0 -20 -6 -20 -50z"/>
<path d="M11817 8765 c-5 -10 0 -15 14 -15 12 0 19 5 17 12 -6 18 -25 20 -31
3z"/>
<path d="M13016 8765 c-4 -11 1 -15 19 -15 18 0 23 4 19 15 -4 8 -12 15 -19
15 -7 0 -15 -7 -19 -15z"/>
<path d="M11157 8774 c-13 -13 -7 -24 14 -24 11 0 19 5 17 12 -5 14 -22 21
-31 12z"/>
<path d="M11957 8774 c-13 -13 -7 -24 14 -24 11 0 19 5 17 12 -5 14 -22 21
-31 12z"/>
<path d="M12115 8761 c-6 -20 3 -51 15 -51 23 0 40 15 40 35 0 21 -17 35 -40
35 -5 0 -11 -8 -15 -19z"/>
<path d="M11950 8731 c0 -19 20 -22 42 -7 22 16 22 16 -10 16 -17 0 -32 -4
-32 -9z"/>
<path d="M12280 8740 c0 -21 37 -37 52 -22 6 6 -1 15 -21 25 -29 15 -31 14
-31 -3z"/>
<path d="M12238 8742 c-21 -4 -24 -32 -4 -32 8 0 17 7 20 16 8 20 6 21 -16 16z"/>
<path d="M12918 8742 c-21 -4 -24 -32 -4 -32 8 0 17 7 20 16 8 20 6 21 -16 16z"/>
<path d="M13193 8743 c-16 -6 -17 -33 -3 -33 11 0 26 28 19 34 -2 2 -10 1 -16
-1z"/>
<path d="M8201 6864 c-41 -52 -14 -164 39 -164 29 0 60 47 60 92 0 87 -55 127
-99 72z"/>
<path d="M8669 6871 c-20 -16 -24 -28 -23 -76 0 -48 4 -61 23 -76 30 -24 46
-24 71 1 15 15 20 33 20 75 0 42 -5 60 -20 75 -25 25 -41 25 -71 1z"/>
<path d="M11871 6864 c-41 -52 -14 -164 39 -164 29 0 60 47 60 92 0 87 -55
127 -99 72z"/>
<path d="M6332 6883 c-18 -7 -42 -57 -42 -88 0 -39 27 -84 55 -91 34 -8 72 18
80 56 18 83 -31 148 -93 123z"/>
<path d="M7577 6872 c-32 -36 -22 -52 33 -52 42 0 50 3 50 18 0 22 -30 52 -52
52 -8 0 -22 -8 -31 -18z"/>
<path d="M8993 6882 c-6 -4 -16 -20 -22 -35 l-11 -27 55 0 c61 0 71 14 35 50
-21 21 -37 25 -57 12z"/>
<path d="M9892 6883 c-18 -7 -42 -57 -42 -88 0 -39 27 -84 55 -91 34 -8 72 18
80 56 18 83 -31 148 -93 123z"/>
<path d="M10699 6871 c-20 -16 -24 -28 -24 -76 0 -48 4 -60 24 -76 30 -24 46
-24 71 1 15 15 20 33 20 75 0 42 -5 60 -20 75 -25 25 -41 25 -71 1z"/>
<path d="M11572 6759 c-26 -10 -26 -36 0 -52 26 -17 68 7 68 38 0 27 -23 32
-68 14z"/>
<path d="M12208 6879 c-26 -15 -40 -77 -27 -122 16 -60 63 -74 104 -32 19 18
25 35 25 70 0 71 -52 114 -102 84z"/>
<path d="M12657 6872 c-32 -36 -22 -52 33 -52 42 0 50 3 50 18 0 22 -30 52
-52 52 -8 0 -22 -8 -31 -18z"/>
<path d="M7379 6201 c-20 -16 -24 -28 -23 -76 0 -48 4 -61 23 -76 30 -24 46
-24 71 1 15 15 20 33 20 75 0 42 -5 60 -20 75 -25 25 -41 25 -71 1z"/>
<path d="M8037 6202 c-32 -36 -22 -52 33 -52 42 0 50 3 50 18 0 22 -30 52 -52
52 -8 0 -22 -8 -31 -18z"/>
<path d="M8522 6213 c-18 -7 -42 -57 -42 -88 0 -39 27 -84 55 -91 34 -8 72 18
80 56 18 83 -31 148 -93 123z"/>
<path d="M9004 6101 c-17 -4 -36 -11 -42 -15 -19 -12 -14 -44 8 -51 30 -9 70
20 70 50 0 14 -1 25 -2 24 -2 -1 -17 -4 -34 -8z"/>
<path d="M9282 6213 c-18 -7 -42 -57 -42 -88 0 -39 27 -84 55 -91 34 -8 72 18
80 56 18 83 -31 148 -93 123z"/>
<path d="M9740 6198 c-48 -52 -9 -180 52 -165 49 13 66 112 27 161 -25 32 -51
33 -79 4z"/>
<path d="M10055 6195 c-19 -18 -25 -35 -25 -70 0 -78 64 -122 108 -74 53 56
24 169 -43 169 -9 0 -27 -11 -40 -25z"/>
<path d="M10892 6213 c-18 -7 -42 -57 -42 -88 0 -39 27 -84 55 -91 34 -8 72
18 80 56 18 83 -31 148 -93 123z"/>
<path d="M6722 5485 c-10 -22 -9 -25 8 -25 21 0 26 16 12 38 -6 9 -12 6 -20
-13z"/>
<path d="M6820 5460 c0 -23 4 -30 20 -30 16 0 20 7 20 30 0 23 -4 30 -20 30
-16 0 -20 -7 -20 -30z"/>
<path d="M7162 5488 c-16 -16 -15 -43 1 -57 16 -13 37 4 37 30 0 25 -24 41
-38 27z"/>
<path d="M7531 5487 c-23 -23 -4 -71 25 -60 8 3 14 18 14 33 0 30 -21 45 -39
27z"/>
<path d="M9413 5493 c-17 -6 -16 -60 1 -66 17 -7 36 11 36 34 0 20 -21 38 -37
32z"/>
<path d="M9502 5488 c-16 -16 -15 -43 1 -57 16 -13 37 4 37 30 0 25 -24 41
-38 27z"/>
<path d="M10202 5488 c-16 -16 -15 -43 1 -57 16 -13 37 4 37 30 0 25 -24 41
-38 27z"/>
<path d="M11101 5487 c-23 -23 -4 -71 25 -60 8 3 14 18 14 33 0 30 -21 45 -39
27z"/>
<path d="M11292 5488 c-16 -16 -15 -43 1 -57 16 -13 37 4 37 30 0 25 -24 41
-38 27z"/>
<path d="M6976 5493 c-12 -12 -5 -23 14 -23 11 0 20 4 20 9 0 11 -26 22 -34
14z"/>
<path d="M7250 5442 c0 -14 11 -21 26 -15 21 8 17 23 -6 23 -11 0 -20 -4 -20
-8z"/>
<path d="M7386 5441 c-7 -11 14 -20 32 -14 6 3 12 9 12 14 0 12 -37 12 -44 0z"/>
<path d="M7633 5493 c-7 -3 -13 -9 -13 -14 0 -12 37 -12 44 0 7 11 -14 20 -31
14z"/>
<path d="M7813 5493 c-7 -3 -13 -9 -13 -14 0 -12 37 -12 44 0 7 11 -14 20 -31
14z"/>
<path d="M8081 5487 c-23 -23 -4 -71 25 -60 8 3 14 18 14 33 0 30 -21 45 -39
27z"/>
<path d="M8303 5493 c-7 -3 -13 -9 -13 -14 0 -12 37 -12 44 0 7 11 -14 20 -31
14z"/>
<path d="M8667 5494 c-13 -13 -7 -24 14 -24 11 0 19 5 17 12 -5 14 -22 21 -31
12z"/>
<path d="M8850 5441 c0 -18 17 -20 36 -6 18 14 18 14 -8 15 -16 0 -28 -4 -28
-9z"/>
<path d="M9043 5493 c-7 -3 -13 -9 -13 -14 0 -12 37 -12 44 0 7 11 -14 20 -31
14z"/>
<path d="M9597 5494 c-13 -13 -7 -24 14 -24 11 0 19 5 17 12 -5 14 -22 21 -31
12z"/>
<path d="M9830 5441 c0 -18 17 -20 36 -6 18 14 18 14 -8 15 -16 0 -28 -4 -28
-9z"/>
<path d="M10067 5494 c-13 -13 -7 -24 14 -24 11 0 19 5 17 12 -5 14 -22 21
-31 12z"/>
<path d="M10303 5493 c-7 -3 -13 -9 -13 -14 0 -12 37 -12 44 0 7 11 -14 20
-31 14z"/>
<path d="M10430 5442 c0 -14 11 -21 26 -15 21 8 17 23 -6 23 -11 0 -20 -4 -20
-8z"/>
<path d="M10606 5441 c-7 -11 14 -20 32 -14 6 3 12 9 12 14 0 12 -37 12 -44 0z"/>
<path d="M10753 5493 c-17 -6 -16 -60 1 -66 17 -7 36 11 36 34 0 20 -21 38
-37 32z"/>
<path d="M10930 5441 c0 -18 17 -20 36 -6 18 14 18 14 -8 15 -16 0 -28 -4 -28
-9z"/>
<path d="M11190 5442 c0 -14 11 -21 26 -15 21 8 17 23 -6 23 -11 0 -20 -4 -20
-8z"/>
<path d="M11393 5493 c-7 -3 -13 -9 -13 -14 0 -12 37 -12 44 0 7 11 -14 20
-31 14z"/>
<path d="M11611 5487 c-23 -23 -4 -71 25 -60 8 3 14 18 14 33 0 30 -21 45 -39
27z"/>
<path d="M8751 5217 c-23 -23 -4 -71 25 -60 8 3 14 18 14 33 0 30 -21 45 -39
27z"/>
<path d="M11362 5218 c-16 -16 -15 -43 1 -57 16 -13 37 4 37 30 0 25 -24 41
-38 27z"/>
<path d="M6870 5191 c0 -35 25 -48 40 -21 13 25 3 50 -21 50 -14 0 -19 -7 -19
-29z"/>
<path d="M7073 5223 c-7 -3 -13 -9 -13 -14 0 -12 37 -12 44 0 7 11 -14 20 -31
14z"/>
<path d="M7353 5223 c-7 -3 -13 -9 -13 -14 0 -12 37 -12 44 0 7 11 -14 20 -31
14z"/>
<path d="M7566 5171 c-7 -11 14 -20 32 -14 6 3 12 9 12 14 0 12 -37 12 -44 0z"/>
<path d="M7800 5171 c0 -18 17 -20 36 -6 18 14 18 14 -8 15 -16 0 -28 -4 -28
-9z"/>
<path d="M7940 5172 c0 -14 11 -21 26 -15 21 8 17 23 -6 23 -11 0 -20 -4 -20
-8z"/>
<path d="M8103 5223 c-7 -3 -13 -9 -13 -14 0 -12 37 -12 44 0 7 11 -14 20 -31
14z"/>
<path d="M8186 5171 c-7 -11 14 -20 32 -14 6 3 12 9 12 14 0 12 -37 12 -44 0z"/>
<path d="M8326 5171 c-7 -11 14 -20 32 -14 6 3 12 9 12 14 0 12 -37 12 -44 0z"/>
<path d="M8556 5171 c-7 -11 14 -20 32 -14 6 3 12 9 12 14 0 12 -37 12 -44 0z"/>
<path d="M8853 5223 c-7 -3 -13 -17 -13 -33 0 -28 14 -41 38 -33 6 3 12 17 12
33 0 28 -14 41 -37 33z"/>
<path d="M9071 5217 c-23 -23 -4 -71 25 -60 8 3 14 18 14 33 0 30 -21 45 -39
27z"/>
<path d="M9362 5218 c-16 -16 -15 -43 1 -57 16 -13 37 4 37 30 0 25 -24 41
-38 27z"/>
<path d="M9513 5223 c-17 -6 -16 -60 1 -66 17 -7 36 11 36 34 0 20 -21 38 -37
32z"/>
<path d="M9637 5224 c-13 -13 -7 -24 14 -24 11 0 19 5 17 12 -5 14 -22 21 -31
12z"/>
<path d="M9772 5218 c-16 -16 -15 -43 2 -57 11 -9 18 -8 30 4 20 20 20 29 0
49 -19 19 -17 19 -32 4z"/>
<path d="M9990 5171 c0 -18 17 -20 36 -6 18 14 18 14 -8 15 -16 0 -28 -4 -28
-9z"/>
<path d="M10166 5171 c-7 -11 14 -20 32 -14 6 3 12 9 12 14 0 12 -37 12 -44 0z"/>
<path d="M10416 5223 c-12 -12 -5 -23 14 -23 11 0 20 4 20 9 0 11 -26 22 -34
14z"/>
<path d="M10653 5223 c-7 -3 -13 -9 -13 -14 0 -12 37 -12 44 0 7 11 -14 20
-31 14z"/>
<path d="M10843 5223 c-7 -3 -13 -9 -13 -14 0 -12 37 -12 44 0 7 11 -14 20
-31 14z"/>
<path d="M11033 5223 c-7 -3 -13 -17 -13 -33 0 -28 14 -41 38 -33 6 3 12 17
12 33 0 28 -14 41 -37 33z"/>
<path d="M11260 5171 c0 -18 17 -20 36 -6 18 14 18 14 -8 15 -16 0 -28 -4 -28
-9z"/>
<path d="M11463 5223 c-17 -6 -16 -60 1 -66 17 -7 36 11 36 34 0 20 -21 38
-37 32z"/>
<path d="M8210 4510 c0 -33 4 -60 10 -60 6 0 10 11 10 25 0 20 5 25 25 25 14
0 25 5 25 10 0 6 -11 10 -25 10 -16 0 -25 6 -25 15 0 10 10 15 30 15 17 0 30
5 30 10 0 6 -18 10 -40 10 l-40 0 0 -60z"/>
<path d="M8885 4558 c-4 -11 -18 -18 -36 -18 -28 0 -29 -2 -29 -45 0 -52 17
-61 22 -13 2 22 9 34 21 36 13 3 17 -4 17 -31 l0 -35 49 0 c34 -1 54 4 63 15
11 14 10 16 -14 10 -15 -4 -30 -3 -33 3 -4 6 6 10 24 10 20 0 31 5 31 14 0 22
-28 39 -52 33 -26 -7 -42 1 -50 23 -5 13 -7 12 -13 -2z m35 -63 c0 -14 -4 -25
-10 -25 -5 0 -10 11 -10 25 0 14 5 25 10 25 6 0 10 -11 10 -25z"/>
<path d="M9100 4555 c0 -8 -9 -15 -20 -15 -28 0 -45 -36 -31 -66 10 -22 16
-24 86 -22 l76 1 -3 41 c-3 38 -5 41 -32 41 -16 0 -31 -6 -34 -14 -3 -10 2
-11 18 -6 14 4 20 3 16 -3 -3 -5 -15 -12 -26 -15 -18 -4 -20 0 -20 34 0 28 -4
39 -15 39 -8 0 -15 -7 -15 -15z m0 -60 c0 -26 -14 -33 -25 -15 -9 14 1 40 15
40 5 0 10 -11 10 -25z m80 -15 c0 -5 -5 -10 -11 -10 -5 0 -7 5 -4 10 3 6 8 10
11 10 2 0 4 -4 4 -10z"/>
<path d="M9260 4510 c0 -47 3 -60 15 -60 12 0 15 13 15 60 0 47 -3 60 -15 60
-12 0 -15 -13 -15 -60z"/>
<path d="M9300 4560 c0 -5 7 -10 15 -10 8 0 15 5 15 10 0 6 -7 10 -15 10 -8 0
-15 -4 -15 -10z"/>
<path d="M9431 4553 c-5 -10 -6 -36 -2 -58 l6 -40 58 -3 57 -3 0 33 c0 49 -12
62 -50 55 -26 -6 -33 -3 -37 13 -7 25 -19 26 -32 3z m67 -47 c-15 -5 -29 -17
-31 -25 -3 -9 -5 -5 -6 9 -1 22 3 25 32 26 l32 0 -27 -10z m22 -20 c0 -3 -4
-8 -10 -11 -5 -3 -10 -1 -10 4 0 6 5 11 10 11 6 0 10 -2 10 -4z"/>
<path d="M9650 4555 c0 -8 -9 -15 -20 -15 -27 0 -42 -32 -30 -64 8 -21 16 -26
45 -26 l35 0 0 60 c0 47 -3 60 -15 60 -8 0 -15 -7 -15 -15z m0 -60 c0 -26 -14
-33 -25 -15 -9 14 1 40 15 40 5 0 10 -11 10 -25z"/>
<path d="M8307 4534 c-14 -14 -7 -25 13 -19 29 9 24 -4 -6 -15 -16 -7 -24 -16
-22 -28 3 -14 16 -17 81 -20 48 -2 77 1 77 8 0 5 -10 10 -22 10 -21 0 -21 0
-2 21 19 21 19 21 22 1 2 -11 9 -26 17 -32 18 -15 57 -9 63 9 3 10 -2 12 -22
7 -15 -4 -26 -2 -26 4 0 5 11 10 25 10 18 0 25 5 25 20 0 24 -44 38 -65 20
-10 -9 -15 -9 -15 -1 0 6 -16 11 -35 11 -19 0 -35 -4 -35 -10 0 -5 7 -10 16
-10 13 0 13 -4 -3 -31 l-18 -31 -5 39 c-4 32 -9 38 -30 41 -14 2 -29 0 -33 -4z
m33 -54 c0 -5 -5 -10 -11 -10 -5 0 -7 5 -4 10 3 6 8 10 11 10 2 0 4 -4 4 -10z"/>
<path d="M8540 4495 c0 -33 4 -45 15 -45 10 0 15 11 15 35 0 24 5 35 15 35 8
0 15 5 15 10 0 6 -13 10 -30 10 -29 0 -30 -2 -30 -45z"/>
<path d="M8640 4481 c0 -48 3 -61 15 -61 8 0 15 7 15 15 0 8 9 15 20 15 10 0
23 7 28 16 8 14 10 14 15 1 3 -9 18 -15 39 -15 l34 0 -5 42 c-6 37 -9 41 -35
41 -16 0 -31 -6 -34 -14 -3 -10 2 -12 24 -8 l29 6 -30 -14 c-28 -12 -30 -12
-35 8 -5 17 -15 23 -43 25 l-37 3 0 -60z m57 23 c8 -22 -15 -44 -26 -25 -10
16 -4 41 10 41 5 0 12 -7 16 -16z m78 -24 c-3 -5 -11 -10 -16 -10 -6 0 -7 5
-4 10 3 6 11 10 16 10 6 0 7 -4 4 -10z"/>
<path d="M9300 4495 c0 -33 4 -45 15 -45 11 0 15 12 15 45 0 33 -4 45 -15 45
-11 0 -15 -12 -15 -45z"/>
<path d="M9347 4533 c-14 -14 -6 -34 18 -43 33 -13 32 -22 -1 -14 -20 5 -25 3
-22 -7 7 -21 52 -23 68 -3 12 14 12 18 -3 29 -13 9 -14 14 -6 17 7 2 9 10 5
16 -8 13 -48 16 -59 5z"/>
<path d="M9702 4531 c-8 -5 -12 -22 -10 -42 2 -28 7 -35 29 -37 15 -2 31 4 40
14 13 16 12 17 -13 11 -15 -4 -30 -3 -33 3 -4 6 6 10 24 10 32 0 41 16 19 38
-14 14 -37 15 -56 3z"/>
<path d="M9822 4528 c-29 -29 -7 -78 34 -78 13 0 26 5 29 10 5 8 11 7 20 0 21
-18 60 -8 63 15 2 15 -5 24 -25 32 l-28 12 29 -6 c22 -4 27 -2 24 8 -3 8 -18
14 -34 14 -22 0 -30 -5 -32 -22 -3 -17 2 -23 17 -23 11 0 22 -4 25 -8 2 -4
-20 -8 -50 -8 -30 1 -54 4 -54 9 0 4 11 7 25 7 18 0 25 5 25 19 0 29 -45 42
-68 19z"/>
<path d="M9980 4480 c0 -47 3 -60 15 -60 8 0 15 7 15 15 0 8 8 15 18 15 10 0
23 5 30 12 8 8 15 8 26 -1 19 -16 58 -11 64 8 3 10 -2 12 -22 7 -15 -4 -26 -2
-26 4 0 5 11 10 25 10 18 0 25 5 25 20 0 25 -44 38 -66 20 -11 -10 -18 -10
-26 -2 -7 7 -27 12 -45 12 l-33 0 0 -60z m60 15 c0 -26 -14 -33 -25 -15 -9 14
1 40 15 40 5 0 10 -11 10 -25z"/>
<path d="M10160 4495 c0 -33 4 -45 15 -45 10 0 15 10 15 34 0 32 2 34 35 33
42 -1 43 -4 9 -17 -40 -16 -28 -45 19 -47 l38 -1 -3 41 -3 42 -62 2 -63 3 0
-45z m100 -15 c0 -5 -5 -10 -11 -10 -5 0 -7 5 -4 10 3 6 8 10 11 10 2 0 4 -4
4 -10z"/>
<path d="M12747 3183 c-15 -15 -7 -63 13 -73 42 -22 82 34 48 68 -13 13 -50
16 -61 5z"/>
<path d="M12880 3170 c-12 -22 0 -55 22 -63 39 -13 74 37 48 68 -18 21 -57 19
-70 -5z"/>
<path d="M13022 3178 c-18 -18 -15 -43 8 -63 18 -17 21 -17 45 -1 40 27 28 76
-20 76 -12 0 -26 -5 -33 -12z"/>
<path d="M5175 2546 c-8 -13 -12 -31 -9 -40 9 -23 44 -36 67 -24 24 12 23 64
-2 78 -29 15 -39 13 -56 -14z"/>
<path d="M5328 2559 c-24 -13 -23 -61 1 -76 14 -9 24 -8 42 1 30 15 36 42 13
67 -19 21 -31 23 -56 8z"/>
<path d="M5465 2554 c-21 -21 -16 -53 10 -70 18 -12 24 -11 43 2 27 19 29 60
3 74 -27 14 -37 13 -56 -6z"/>
<path d="M9370 890 l0 -890 744 0 745 0 20 26 20 25 17 -25 c16 -25 19 -26
128 -25 l111 0 124 170 c69 93 127 169 130 169 3 -1 30 -33 59 -72 l52 -72 0
792 0 792 -1075 0 -1075 0 0 -890z"/>
<path d="M11835 1761 c-11 -5 -29 -19 -40 -31 -20 -22 -20 -38 -23 -876 l-2
-854 1625 0 1625 0 -2 855 -3 855 -28 27 -27 28 -1553 2 c-853 1 -1561 -2
-1572 -6z m1569 -1249 c-207 -1 -379 0 -381 2 -5 5 184 259 195 264 4 1 43
-45 86 -103 l78 -104 29 21 c16 12 29 23 29 25 0 3 -63 92 -92 129 -5 7 17 44
58 98 l66 88 154 -209 155 -208 -377 -3z"/>
<path d="M4160 135 l0 -135 279 0 280 0 4 38 4 37 1 -37 2 -38 549 0 550 0 4
32 4 33 1 -32 2 -33 235 0 235 0 0 135 0 135 -1075 0 -1075 0 0 -135z m237
-107 c-2 -13 -4 -3 -4 22 0 25 2 35 4 23 2 -13 2 -33 0 -45z m530 15 c-3 -10
-5 -2 -5 17 0 19 2 27 5 18 2 -10 2 -26 0 -35z m200 -15 c-2 -13 -4 -3 -4 22
0 25 2 35 4 23 2 -13 2 -33 0 -45z m120 0 c-2 -13 -4 -3 -4 22 0 25 2 35 4 23
2 -13 2 -33 0 -45z m130 15 c-3 -10 -5 -2 -5 17 0 19 2 27 5 18 2 -10 2 -26 0
-35z m-879 -14 c-3 -20 -5 -19 -9 9 -3 20 -2 29 4 23 5 -5 7 -19 5 -32z m130
16 c-3 -3 -9 2 -12 12 -6 14 -5 15 5 6 7 -7 10 -15 7 -18z m220 -16 c-3 -20
-5 -19 -9 9 -3 20 -2 29 4 23 5 -5 7 -19 5 -32z m29 -6 c-3 -10 -5 -2 -5 17 0
19 2 27 5 18 2 -10 2 -26 0 -35z m106 32 c-3 -9 -8 -14 -10 -11 -3 3 -2 9 2
15 9 16 15 13 8 -4z m542 -14 c0 -16 -3 -27 -7 -24 -13 7 -7 53 6 53 1 0 1
-13 1 -29z m123 4 c-3 -3 -9 2 -12 12 -6 14 -5 15 5 6 7 -7 10 -15 7 -18z m57
-4 c0 -16 -3 -27 -7 -24 -13 7 -7 53 6 53 1 0 1 -13 1 -29z m43 4 c-3 -3 -9 2
-12 12 -6 14 -5 15 5 6 7 -7 10 -15 7 -18z m29 10 c0 -8 -4 -12 -9 -9 -5 3 -6
10 -3 15 9 13 12 11 12 -6z m148 -14 c0 -16 -3 -27 -7 -24 -13 7 -7 53 6 53 1
0 1 -13 1 -29z m-1387 -11 c-7 -10 -14 -17 -17 -15 -4 4 18 35 25 35 2 0 -1
-9 -8 -20z m119 -12 c-3 -7 -5 -2 -5 12 0 14 2 19 5 13 2 -7 2 -19 0 -25z
m813 12 c0 -11 -2 -20 -4 -20 -2 0 -6 9 -9 20 -3 11 -1 20 4 20 5 0 9 -9 9
-20z m610 0 c0 -11 -2 -20 -4 -20 -2 0 -6 9 -9 20 -3 11 -1 20 4 20 5 0 9 -9
9 -20z m-1623 -12 c-3 -8 -6 -5 -6 6 -1 11 2 17 5 13 3 -3 4 -12 1 -19z m350
0 c-3 -8 -6 -5 -6 6 -1 11 2 17 5 13 3 -3 4 -12 1 -19z m1000 0 c-3 -8 -6 -5
-6 6 -1 11 2 17 5 13 3 -3 4 -12 1 -19z m74 -1 c-10 -9 -11 -8 -5 6 3 10 9 15
12 12 3 -3 0 -11 -7 -18z"/>
</g>
</svg>
