<?xml version="1.0" standalone="no"?>
<!DOCTYPE svg PUBLIC "-//W3C//DTD SVG 20010904//EN"
 "http://www.w3.org/TR/2001/REC-SVG-20010904/DTD/svg10.dtd">
<svg version="1.0" xmlns="http://www.w3.org/2000/svg"
 width="1592.000000pt" height="878.000000pt" viewBox="0 0 1592.000000 878.000000"
 preserveAspectRatio="xMidYMid meet">

<g transform="translate(0.000000,878.000000) scale(0.100000,-0.100000)"
fill="#000000" stroke="none">
<path d="M0 8475 l0 -305 7960 0 7960 0 0 305 0 305 -7960 0 -7960 0 0 -305z"/>
<path d="M6911 4958 c1 -35 4 -51 6 -35 3 21 10 27 29 27 13 0 24 5 24 10 0 6
-11 10 -25 10 -16 0 -25 6 -25 15 0 10 10 15 30 15 17 0 30 5 30 10 0 6 -16
10 -35 10 l-35 0 1 -62z"/>
<path d="M7800 5001 c0 -14 -5 -18 -19 -14 -27 7 -47 -31 -33 -63 8 -17 19
-22 41 -22 31 1 31 1 31 60 0 32 -4 58 -10 58 -5 0 -10 -9 -10 -19z m0 -56 c0
-25 -23 -35 -35 -15 -10 16 2 40 20 40 9 0 15 -9 15 -25z"/>
<path d="M7960 4960 c0 -33 4 -60 10 -60 6 0 10 27 10 60 0 33 -4 60 -10 60
-6 0 -10 -27 -10 -60z"/>
<path d="M8000 5010 c0 -5 5 -10 10 -10 6 0 10 5 10 10 0 6 -4 10 -10 10 -5 0
-10 -4 -10 -10z"/>
<path d="M8133 5005 c-6 -11 -8 -38 -4 -60 l6 -40 53 -1 c51 -2 52 -1 52 26 0
58 -31 80 -61 44 -11 -13 -9 -15 17 -10 l29 6 -27 -12 c-16 -7 -28 -18 -28
-25 0 -7 -5 -13 -11 -13 -7 0 -10 12 -7 33 3 17 2 41 -2 52 -7 19 -7 19 -17 0z
m82 -75 c-3 -5 -10 -10 -16 -10 -5 0 -9 5 -9 10 0 6 7 10 16 10 8 0 12 -4 9
-10z"/>
<path d="M8350 5001 c0 -14 -5 -18 -19 -14 -26 7 -44 -27 -31 -61 7 -19 16
-24 40 -24 30 1 30 1 30 60 0 32 -4 58 -10 58 -5 0 -10 -9 -10 -19z m0 -56 c0
-25 -23 -35 -35 -15 -10 16 2 40 20 40 9 0 15 -9 15 -25z"/>
<path d="M7580 5001 c0 -6 -13 -11 -30 -11 -29 0 -30 -1 -29 -47 2 -45 2 -46
8 -13 4 26 12 36 29 38 19 3 22 -1 22 -32 0 -25 4 -36 15 -36 8 0 15 5 15 10
0 6 -4 10 -10 10 -14 0 -12 48 2 52 9 3 8 9 -5 22 -9 10 -17 13 -17 7z"/>
<path d="M7007 4984 c-13 -14 -7 -22 13 -17 29 8 25 -6 -6 -17 -38 -15 -28
-45 14 -45 32 -1 33 0 30 40 -2 31 -7 41 -23 43 -12 2 -24 0 -28 -4z m33 -54
c0 -5 -7 -10 -16 -10 -8 0 -12 5 -9 10 3 6 10 10 16 10 5 0 9 -4 9 -10z"/>
<path d="M7080 4980 c0 -5 7 -10 16 -10 15 0 15 -2 0 -25 -23 -35 -20 -45 14
-45 17 0 30 5 30 10 0 6 -10 10 -22 10 l-21 0 21 23 c30 32 27 47 -8 47 -16 0
-30 -4 -30 -10z"/>
<path d="M7162 4978 c-16 -16 -15 -53 3 -68 17 -14 47 -10 53 8 3 9 -3 11 -22
6 -16 -4 -26 -2 -26 5 0 6 11 11 25 11 18 0 25 5 25 19 0 28 -37 40 -58 19z
m35 -14 c-3 -3 -12 -4 -19 -1 -8 3 -5 6 6 6 11 1 17 -2 13 -5z"/>
<path d="M7240 4945 c0 -25 5 -45 10 -45 6 0 10 16 10 35 0 24 5 35 15 35 8 0
15 5 15 10 0 6 -11 10 -25 10 -23 0 -25 -4 -25 -45z"/>
<path d="M7340 4929 c0 -33 4 -59 10 -59 6 0 10 8 10 18 0 13 7 18 23 18 19
-1 22 4 22 39 0 38 -2 40 -32 42 l-33 1 0 -59z m58 18 c4 -21 -27 -35 -38 -17
-12 19 0 42 19 38 9 -2 17 -11 19 -21z"/>
<path d="M7437 4984 c-15 -15 -6 -24 21 -19 l27 5 -28 -12 c-39 -17 -34 -52 9
-54 30 -1 30 -1 25 40 -5 31 -11 42 -26 44 -12 2 -24 0 -28 -4z m38 -54 c-3
-5 -13 -10 -21 -10 -8 0 -12 5 -9 10 3 6 13 10 21 10 8 0 12 -4 9 -10z"/>
<path d="M7632 4981 c-8 -5 -12 -22 -10 -42 2 -26 8 -35 24 -37 11 -2 27 4 34
13 12 14 11 16 -12 10 -15 -4 -29 -2 -32 4 -5 7 4 11 23 11 32 0 41 16 19 38
-14 14 -28 15 -46 3z m35 -17 c-3 -3 -12 -4 -19 -1 -8 3 -5 6 6 6 11 1 17 -2
13 -5z"/>
<path d="M7847 4984 c-13 -14 -7 -22 13 -17 29 8 25 -6 -6 -17 -38 -15 -28
-45 14 -45 32 -1 33 0 30 40 -2 31 -7 41 -23 43 -12 2 -24 0 -28 -4z m33 -54
c0 -5 -7 -10 -16 -10 -8 0 -12 5 -9 10 3 6 10 10 16 10 5 0 9 -4 9 -10z"/>
<path d="M8000 4945 c0 -25 5 -45 10 -45 6 0 10 20 10 45 0 25 -4 45 -10 45
-5 0 -10 -20 -10 -45z"/>
<path d="M8047 4984 c-14 -15 -6 -35 18 -44 33 -13 32 -24 -1 -16 -19 5 -25 3
-22 -6 6 -18 36 -22 53 -8 21 18 19 27 -12 45 -25 14 -25 15 -4 9 17 -4 22 -2
19 7 -5 15 -40 24 -51 13z"/>
<path d="M8402 4981 c-8 -5 -12 -22 -10 -42 2 -26 8 -35 24 -37 11 -2 27 4 34
13 12 14 11 16 -12 10 -15 -4 -29 -2 -32 4 -5 7 4 11 23 11 32 0 41 16 19 38
-14 14 -28 15 -46 3z m35 -17 c-3 -3 -12 -4 -19 -1 -8 3 -5 6 6 6 11 1 17 -2
13 -5z"/>
<path d="M8522 4978 c-16 -16 -15 -53 3 -68 17 -14 47 -10 53 8 3 9 -3 11 -22
6 -16 -4 -26 -2 -26 5 0 6 11 11 25 11 18 0 25 5 25 19 0 28 -37 40 -58 19z
m35 -14 c-3 -3 -12 -4 -19 -1 -8 3 -5 6 6 6 11 1 17 -2 13 -5z"/>
<path d="M8607 4984 c-15 -15 -7 -44 12 -44 11 0 23 -5 27 -12 5 -8 -2 -9 -26
-5 -28 6 -31 5 -20 -8 18 -22 54 -15 58 10 2 15 -5 24 -25 33 l-28 12 28 -6
c21 -3 28 -1 25 8 -5 15 -40 23 -51 12z"/>
<path d="M8680 4929 c0 -33 4 -59 10 -59 6 0 10 9 10 20 0 13 5 18 15 14 21
-8 45 14 45 41 0 29 -18 43 -52 43 -27 0 -28 -2 -28 -59z m60 16 c0 -25 -23
-35 -35 -15 -10 16 2 40 20 40 9 0 15 -9 15 -25z"/>
<path d="M8782 4978 c-16 -16 -15 -53 3 -68 17 -14 47 -10 53 8 3 9 -3 11 -22
6 -16 -4 -26 -2 -26 5 0 6 11 11 25 11 18 0 25 5 25 19 0 28 -37 40 -58 19z
m35 -14 c-3 -3 -12 -4 -19 -1 -8 3 -5 6 6 6 11 1 17 -2 13 -5z"/>
<path d="M8860 4945 c0 -25 5 -45 10 -45 6 0 10 16 10 35 0 24 5 35 15 35 8 0
15 5 15 10 0 6 -11 10 -25 10 -23 0 -25 -4 -25 -45z"/>
<path d="M8927 4984 c-13 -14 -7 -22 13 -17 29 8 25 -6 -6 -17 -38 -15 -28
-45 14 -45 32 -1 33 0 30 40 -2 31 -7 41 -23 43 -12 2 -24 0 -28 -4z m33 -54
c0 -5 -7 -10 -16 -10 -8 0 -12 5 -9 10 3 6 10 10 16 10 5 0 9 -4 9 -10z"/>
<path d="M0 1910 l0 -1910 7960 0 7960 0 0 1910 0 1910 -7960 0 -7960 0 0
-1910z m3180 1375 l0 -55 25 16 c80 52 164 -70 91 -132 -32 -28 -62 -30 -94
-8 -12 8 -22 10 -22 5 0 -6 -4 -11 -10 -11 -6 0 -10 47 -10 120 0 73 4 120 10
120 6 0 10 -25 10 -55z m-768 28 c21 -19 24 -53 5 -53 -8 0 -22 9 -31 19 -13
14 -24 17 -39 12 -35 -13 -26 -34 23 -57 60 -29 70 -40 70 -74 0 -41 -44 -74
-90 -66 -48 8 -95 66 -53 66 9 0 24 -7 34 -16 24 -21 69 -11 69 15 0 14 -14
25 -46 37 -78 30 -95 66 -52 111 26 28 82 31 110 6z m-245 -1 c7 -5 16 -30 19
-56 l7 -48 -63 -59 -63 -59 -94 0 c-91 0 -94 1 -103 26 -23 60 -14 86 52 146
l63 57 85 1 c47 0 91 -4 97 -8z m353 -32 c0 -23 4 -30 20 -30 11 0 20 -5 20
-11 0 -6 -9 -13 -20 -16 -17 -5 -20 -14 -20 -64 0 -52 -2 -59 -20 -59 -18 0
-20 7 -20 60 0 47 -3 60 -15 60 -8 0 -15 7 -15 15 0 8 7 15 15 15 10 0 15 10
15 30 0 23 4 30 20 30 16 0 20 -7 20 -30z m590 0 c0 -20 5 -30 15 -30 8 0 15
-7 15 -15 0 -8 -7 -15 -15 -15 -12 0 -15 -13 -15 -60 0 -53 -2 -60 -20 -60
-18 0 -20 7 -20 60 0 47 -3 60 -15 60 -8 0 -15 6 -15 14 0 8 7 16 15 20 8 3
15 17 15 31 0 18 5 25 20 25 16 0 20 -7 20 -30z m790 4 c0 -17 6 -28 20 -31
11 -3 20 -9 20 -14 0 -5 -9 -9 -20 -9 -18 0 -20 -7 -20 -65 0 -37 -4 -65 -10
-65 -6 0 -10 27 -10 61 0 47 -4 65 -17 75 -17 13 -17 13 0 14 12 0 17 8 17 30
0 17 5 30 10 30 6 0 10 -12 10 -26z m2230 -24 c0 -49 1 -50 30 -50 17 0 30 -4
30 -10 0 -5 -20 -10 -45 -10 l-45 0 0 60 c0 47 3 60 15 60 11 0 15 -12 15 -50z
m90 40 c0 -5 -4 -10 -10 -10 -5 0 -10 5 -10 10 0 6 5 10 10 10 6 0 10 -4 10
-10z m143 -21 c7 0 26 -2 42 -2 28 -2 30 -5 33 -43 l3 -41 -56 -2 c-59 -2 -59
-2 -69 56 -4 23 0 37 12 49 16 16 17 16 20 1 2 -9 9 -17 15 -18z m217 5 c0
-22 2 -24 15 -14 21 18 65 4 65 -20 0 -15 -7 -20 -25 -20 -14 0 -25 -5 -25
-10 0 -6 11 -8 26 -4 20 5 25 3 22 -7 -6 -18 -45 -24 -64 -9 -10 9 -14 9 -14
1 0 -15 -63 -14 -78 1 -27 27 -7 78 30 78 10 0 18 7 18 15 0 8 7 15 15 15 10
0 15 -10 15 -26z m218 -7 c3 -23 -1 -28 -27 -33 -24 -5 -31 -12 -31 -30 0 -15
-6 -24 -15 -24 -12 0 -15 13 -15 61 l0 60 43 -3 c38 -3 42 -6 45 -31z m57 23
c-3 -5 -11 -10 -16 -10 -6 0 -7 5 -4 10 3 6 11 10 16 10 6 0 7 -4 4 -10z m165
0 c0 -5 -7 -10 -15 -10 -8 0 -15 5 -15 10 0 6 7 10 15 10 8 0 15 -4 15 -10z
m1557 -5 c8 -22 -4 -30 -21 -16 -8 7 -17 8 -19 4 -3 -5 7 -16 23 -25 26 -15
29 -14 44 3 29 34 76 18 76 -26 0 -41 -44 -60 -73 -30 -13 13 -16 13 -27 0
-16 -19 -54 -19 -70 0 -17 21 -4 32 20 17 24 -15 30 -15 30 -2 0 6 -11 16 -25
22 -24 11 -34 45 -18 61 12 13 54 7 60 -8z m143 -45 c0 -47 -3 -60 -15 -60
-12 0 -15 13 -15 60 0 47 3 60 15 60 12 0 15 -13 15 -60z m250 48 c0 -4 -11
-7 -25 -6 -14 1 -25 6 -25 10 0 4 11 7 25 6 14 -1 25 -6 25 -10z m1610 2 c12
-7 12 -12 2 -22 -10 -10 -14 -10 -21 1 -15 23 -41 5 -41 -29 0 -34 22 -49 44
-31 11 9 16 9 21 0 18 -27 -53 -39 -79 -13 -49 48 16 131 74 94z m253 -21 c61
-4 89 0 102 17 13 17 14 17 15 2 0 -9 6 -19 13 -22 10 -5 10 -7 0 -12 -15 -7
-17 -54 -3 -54 6 0 10 -4 10 -10 0 -5 -9 -10 -20 -10 -16 0 -20 7 -20 35 0 19
-4 35 -10 35 -5 0 -10 -15 -10 -34 l0 -34 -57 2 -58 1 -6 35 -6 35 -2 -37 c-1
-52 -31 -54 -31 -3 0 19 -4 35 -10 35 -5 0 -10 -16 -10 -35 0 -24 -5 -35 -15
-35 -11 0 -15 12 -15 46 l0 46 39 -3 c27 -2 44 2 57 16 17 17 19 17 22 2 2 -9
9 -17 15 -18z m1706 -1 l21 -33 0 33 c0 22 5 32 15 32 12 0 15 -13 15 -60 0
-70 -18 -80 -50 -27 l-20 32 0 -32 c0 -23 -5 -33 -15 -33 -12 0 -15 13 -15 60
0 70 16 79 49 28z m761 6 c0 -22 2 -24 15 -14 21 18 65 4 65 -20 0 -15 -7 -20
-25 -20 -14 0 -25 -5 -25 -10 0 -6 11 -8 26 -4 20 5 25 3 22 -7 -6 -18 -45
-24 -64 -9 -10 9 -14 9 -14 1 0 -20 -69 -13 -82 9 -8 12 -24 20 -41 20 -15 0
-26 -4 -23 -9 3 -5 16 -7 27 -4 16 4 20 2 17 -8 -2 -8 -16 -15 -31 -17 -28 -3
-53 28 -43 54 3 8 -1 14 -9 14 -10 0 -15 -11 -15 -35 0 -24 -5 -35 -15 -35
-11 0 -15 12 -15 44 l0 45 60 0 c42 -1 62 -5 68 -15 7 -13 10 -13 21 0 8 9 22
16 32 16 11 0 19 7 19 15 0 8 7 15 15 15 10 0 15 -10 15 -26z m500 16 c0 -5
-4 -10 -10 -10 -5 0 -10 5 -10 10 0 6 5 10 10 10 6 0 10 -4 10 -10z m130 0 c0
-5 -7 -10 -15 -10 -8 0 -15 5 -15 10 0 6 7 10 15 10 8 0 15 -4 15 -10z m-7710
-65 c0 -25 -4 -45 -10 -45 -5 0 -10 20 -10 45 0 25 5 45 10 45 6 0 10 -20 10
-45z m81 28 c13 -15 11 -16 -16 -10 l-30 6 28 -12 c20 -8 27 -17 25 -32 -4
-26 -49 -32 -69 -9 -13 16 -12 17 14 10 19 -4 26 -3 22 4 -3 5 -12 10 -20 10
-18 0 -26 25 -12 39 16 16 42 14 58 -6z m580 -30 l5 -42 -35 2 c-47 3 -56 37
-14 54 l28 12 -27 -6 c-16 -3 -28 -1 -28 4 0 17 14 24 40 21 21 -3 26 -9 31
-45z m99 -2 c0 -30 -5 -53 -14 -61 -20 -15 -61 -9 -62 10 0 8 -4 25 -8 37 -12
36 9 63 49 63 l35 0 0 -49z m40 4 c0 -33 -4 -45 -15 -45 -11 0 -15 12 -15 45
0 33 4 45 15 45 11 0 15 -12 15 -45z m88 -2 c2 -34 0 -43 -12 -43 -12 0 -16
10 -16 35 0 19 -4 35 -10 35 -5 0 -10 -16 -10 -35 0 -24 -5 -35 -15 -35 -11 0
-15 12 -15 46 l0 45 38 -3 c36 -3 37 -4 40 -45z m83 0 l5 -42 -35 2 c-47 3
-56 37 -14 54 l28 12 -27 -6 c-16 -3 -28 -1 -28 4 0 17 14 24 40 21 21 -3 26
-9 31 -45z m80 30 c13 -15 11 -16 -16 -10 l-30 6 28 -12 c20 -8 27 -17 25 -32
-4 -26 -49 -32 -69 -9 -13 16 -12 17 14 10 19 -4 26 -3 22 4 -3 5 -12 10 -20
10 -18 0 -26 25 -12 39 16 16 42 14 58 -6z m1489 -19 c0 -45 24 -42 28 4 4 36
22 44 22 10 l0 -22 16 22 c18 26 46 29 65 5 13 -15 11 -16 -13 -9 -25 6 -28 4
-28 -19 0 -22 3 -25 26 -19 21 5 25 4 20 -7 -3 -8 -9 -22 -12 -31 -4 -10 -16
-18 -28 -18 -13 0 -16 3 -9 8 8 5 4 16 -13 35 -22 26 -24 27 -24 7 0 -18 -5
-21 -37 -18 -37 3 -38 4 -41 46 -2 33 0 42 12 42 12 0 16 -10 16 -36z m220 21
c11 -13 14 -13 27 0 17 17 49 20 58 5 5 -8 11 -7 20 0 18 15 57 9 63 -9 3 -9
-2 -11 -19 -7 -21 6 -21 5 4 -9 15 -9 27 -22 27 -30 0 -20 -48 -31 -71 -17
-12 8 -20 8 -24 2 -10 -16 -53 -12 -63 6 -8 14 -10 14 -21 0 -8 -9 -22 -16
-32 -16 -21 0 -49 26 -49 45 0 37 57 58 80 30z m1698 3 c28 -28 7 -78 -33 -78
-27 0 -45 18 -45 45 0 27 18 45 45 45 12 0 26 -5 33 -12z m373 -9 c16 -30 -3
-69 -34 -69 -29 0 -47 17 -47 45 0 45 60 63 81 24z m1627 9 c9 -9 15 -9 24 0
17 17 43 15 59 -5 13 -15 11 -16 -16 -10 -29 6 -29 6 -5 -5 14 -7 27 -16 30
-19 3 -4 18 -11 34 -15 21 -5 27 -4 22 5 -4 6 -16 11 -27 11 -15 0 -20 6 -17
23 2 17 10 22 32 22 16 0 31 -6 34 -14 4 -11 -2 -12 -24 -8 -29 6 -29 6 -4 -5
14 -7 28 -17 32 -23 5 -7 8 -7 8 1 0 5 12 15 28 21 l27 12 -30 -6 c-27 -6 -29
-5 -16 10 7 10 24 17 37 17 19 0 26 -7 31 -30 3 -16 8 -30 12 -30 3 0 17 -3
30 -7 17 -4 22 -3 17 5 -4 7 -16 12 -27 12 -15 0 -20 6 -17 23 2 17 10 22 32
22 16 0 31 -6 34 -14 3 -10 -2 -12 -24 -8 l-29 6 28 -12 c20 -8 27 -17 25 -32
-4 -24 -42 -33 -64 -15 -10 9 -14 9 -14 1 0 -14 -67 -15 -76 0 -4 8 -9 8 -17
0 -6 -6 -21 -11 -33 -11 -13 0 -26 5 -30 11 -4 8 -9 8 -17 0 -15 -15 -50 -14
-65 1 -9 9 -15 9 -24 0 -28 -28 -78 -7 -78 33 0 27 18 45 45 45 12 0 26 -5 33
-12z m778 0 c4 -6 2 -14 -5 -16 -8 -3 -7 -8 6 -17 15 -11 15 -15 3 -29 -16
-20 -61 -18 -68 3 -3 10 2 12 22 7 33 -8 34 1 1 14 -24 9 -32 29 -18 43 11 11
51 8 59 -5z m122 -7 c3 -9 -2 -11 -19 -7 -24 7 -24 7 1 -8 23 -14 26 -13 34 5
13 27 53 35 75 15 16 -15 19 -15 31 -1 16 20 44 19 61 -2 13 -15 11 -16 -13
-9 -25 6 -28 4 -28 -19 0 -23 3 -25 28 -19 24 7 26 6 13 -9 -17 -21 -45 -22
-61 -2 -12 14 -15 14 -31 -1 -19 -17 -69 -13 -69 7 0 6 -7 3 -16 -6 -19 -19
-65 -16 -72 4 -3 10 2 12 22 7 33 -8 34 1 1 14 -24 9 -32 29 -18 44 12 11 56
2 61 -13z m222 -26 c0 -25 -4 -45 -10 -45 -5 0 -10 20 -10 45 0 25 5 45 10 45
6 0 10 -20 10 -45z m88 -2 l3 -41 -38 1 c-48 2 -56 29 -16 52 22 12 23 14 6
10 -13 -4 -23 -2 -23 3 0 16 14 23 40 20 22 -3 25 -8 28 -45z m42 17 c0 -16 3
-30 8 -30 4 0 18 -3 31 -7 17 -4 22 -3 17 5 -4 7 -16 12 -27 12 -15 0 -20 6
-17 23 2 17 10 22 32 22 16 0 31 -6 34 -14 3 -10 -2 -12 -24 -8 l-29 6 28 -12
c20 -8 27 -17 25 -32 -4 -24 -42 -33 -64 -15 -10 9 -14 9 -14 1 0 -6 -7 -11
-15 -11 -11 0 -15 12 -15 45 0 33 4 45 15 45 10 0 15 -10 15 -30z m-11247 4
c10 -11 -5 -34 -22 -34 -29 0 -41 -22 -41 -72 0 -45 -2 -48 -25 -48 -24 0 -25
2 -25 76 l0 76 30 -4 c17 -3 33 -1 36 4 6 9 38 11 47 2z m331 -14 c16 -15 -4
-29 -34 -23 -36 7 -60 -10 -60 -42 0 -31 24 -49 58 -42 35 7 59 -5 40 -21 -38
-31 -116 -17 -132 23 -10 27 -6 69 8 87 26 34 93 44 120 18z m479 -9 c29 -29
25 -90 -8 -118 -29 -26 -55 -29 -88 -11 -56 29 -63 84 -17 130 26 25 36 29 63
24 18 -4 40 -15 50 -25z m166 14 c31 -16 41 -33 41 -74 0 -61 -62 -96 -118
-67 -60 31 -58 111 3 144 27 15 41 15 74 -3z m152 5 c10 -6 19 -18 19 -27 0
-14 -3 -14 -21 3 -15 14 -24 16 -37 7 -26 -16 -20 -35 13 -46 40 -13 55 -26
55 -48 0 -44 -91 -63 -107 -23 -8 22 7 32 18 11 12 -20 42 -22 57 -4 14 16 3
32 -28 42 -52 16 -64 43 -33 77 18 20 36 23 64 8z m-1069 -51 c6 -95 68 -93
68 2 0 42 3 49 20 49 18 0 20 -7 20 -76 0 -72 -1 -75 -22 -73 -13 2 -29 0 -36
-5 -19 -12 -71 3 -82 24 -6 10 -10 44 -10 74 0 49 3 56 19 56 17 0 20 -8 23
-51z m9896 -421 c7 -7 11 -34 10 -63 l-1 -50 -6 55 -6 55 -53 3 c-47 3 -53 1
-61 -20 -6 -14 -10 -17 -10 -7 -1 8 4 20 11 27 16 16 100 16 116 0z m-59 -31
c-2 -1 -13 -9 -24 -17 -19 -14 -19 -14 -6 3 7 9 18 17 24 17 6 0 8 -1 6 -3z
m31 -7 c0 -5 -2 -10 -4 -10 -3 0 -8 5 -11 10 -3 6 -1 10 4 10 6 0 11 -4 11
-10z m0 -39 c0 -5 -7 -12 -16 -15 -14 -5 -15 -4 -4 9 14 17 20 19 20 6z m-28
-43 l53 -2 -48 -3 c-51 -4 -77 8 -76 36 0 11 3 9 9 -6 8 -19 18 -23 62 -25z
m-51 -401 c-1 -12 -15 -9 -19 4 -3 6 1 10 8 8 6 -3 11 -8 11 -12z m119 -87 c0
-48 -17 -54 -22 -8 -2 22 -9 34 -20 36 -15 3 -18 -4 -18 -32 0 -25 -4 -36 -15
-36 -11 0 -15 12 -15 44 0 41 2 45 28 48 45 6 62 -8 62 -52z m-120 5 c0 -25
-4 -45 -10 -45 -5 0 -10 20 -10 45 0 25 5 45 10 45 6 0 10 -20 10 -45z m123
-455 c5 -4 7 -25 5 -46 -3 -34 -7 -39 -36 -46 -18 -5 -52 -5 -75 -1 -42 9 -42
9 -42 53 0 42 2 45 30 51 34 8 106 1 118 -11z"/>
<path d="M3220 3227 c-37 -18 -41 -80 -7 -102 65 -42 127 56 64 100 -26 18
-26 18 -57 2z"/>
<path d="M6350 3231 c1 -23 2 -24 11 -8 5 9 16 17 24 17 8 0 16 4 19 8 3 5 -8
9 -24 9 -26 0 -30 -4 -30 -26z"/>
<path d="M6395 3220 c-3 -5 -1 -10 4 -10 6 0 11 5 11 10 0 6 -2 10 -4 10 -3 0
-8 -4 -11 -10z"/>
<path d="M6520 3235 c0 -17 5 -25 13 -22 6 2 12 12 12 22 0 10 -6 20 -12 23
-8 2 -13 -6 -13 -23z"/>
<path d="M6740 3275 c0 -8 7 -15 15 -15 8 0 15 7 15 15 0 8 -7 15 -15 15 -8 0
-15 -7 -15 -15z"/>
<path d="M8623 3244 c-8 -21 13 -42 28 -27 13 13 5 43 -11 43 -6 0 -13 -7 -17
-16z"/>
<path d="M10820 3231 c1 -23 2 -24 11 -8 5 9 16 17 24 17 8 0 16 4 19 8 3 5
-8 9 -24 9 -26 0 -30 -4 -30 -26z"/>
<path d="M10865 3220 c-3 -5 -1 -10 4 -10 6 0 11 5 11 10 0 6 -2 10 -4 10 -3
0 -8 -4 -11 -10z"/>
<path d="M13158 3253 c7 -3 16 -2 19 1 4 3 -2 6 -13 5 -11 0 -14 -3 -6 -6z"/>
<path d="M13240 3235 c0 -17 5 -25 13 -22 6 2 12 12 12 22 0 10 -6 20 -12 23
-8 2 -13 -6 -13 -23z"/>
<path d="M6835 3220 c-3 -5 -2 -10 4 -10 5 0 13 5 16 10 3 6 2 10 -4 10 -5 0
-13 -4 -16 -10z"/>
<path d="M6924 3245 c-3 -8 -3 -19 1 -25 11 -18 25 -11 25 15 0 27 -17 34 -26
10z"/>
<path d="M7145 3220 c-3 -5 -2 -10 4 -10 5 0 13 5 16 10 3 6 2 10 -4 10 -5 0
-13 -4 -16 -10z"/>
<path d="M8933 3244 c-8 -21 13 -42 28 -27 13 13 5 43 -11 43 -6 0 -13 -7 -17
-16z"/>
<path d="M9050 3229 c-19 -3 -33 -7 -30 -9 13 -5 108 -4 104 1 -7 12 -38 15
-74 8z"/>
<path d="M10630 3235 c0 -16 6 -25 15 -25 9 0 15 9 15 25 0 16 -6 25 -15 25
-9 0 -15 -9 -15 -25z"/>
<path d="M10997 3247 c-3 -8 -1 -20 4 -28 11 -19 34 3 26 25 -8 20 -23 21 -30
3z"/>
<path d="M12630 3235 c0 -16 6 -25 15 -25 9 0 15 9 15 25 0 16 -6 25 -15 25
-9 0 -15 -9 -15 -25z"/>
<path d="M12690 3239 c0 -9 10 -19 22 -22 28 -8 37 0 12 10 -10 3 -22 11 -26
17 -5 7 -8 5 -8 -5z"/>
<path d="M12890 3219 c0 -5 5 -7 10 -4 6 3 10 8 10 11 0 2 -4 4 -10 4 -5 0
-10 -5 -10 -11z"/>
<path d="M13623 3244 c-8 -21 13 -42 28 -27 13 13 5 43 -11 43 -6 0 -13 -7
-17 -16z"/>
<path d="M13840 3220 c0 -5 5 -10 10 -10 6 0 10 5 10 10 0 6 -4 10 -10 10 -5
0 -10 -4 -10 -10z"/>
<path d="M3413 3230 c-48 -20 -53 -77 -8 -106 21 -13 28 -14 52 -2 39 18 45
78 11 102 -25 18 -25 18 -55 6z"/>
<path d="M3586 3219 c-46 -36 -24 -102 35 -102 59 0 80 65 33 102 -15 12 -30
21 -34 21 -4 0 -19 -9 -34 -21z"/>
<path d="M12560 1680 c0 -28 2 -30 20 -20 11 6 20 15 20 20 0 5 -9 14 -20 20
-18 10 -20 8 -20 -20z"/>
</g>
</svg>
