<?xml version="1.0" standalone="no"?>
<!DOCTYPE svg PUBLIC "-//W3C//DTD SVG 20010904//EN"
 "http://www.w3.org/TR/2001/REC-SVG-20010904/DTD/svg10.dtd">
<svg version="1.0" xmlns="http://www.w3.org/2000/svg"
 width="1606.000000pt" height="913.000000pt" viewBox="0 0 1606.000000 913.000000"
 preserveAspectRatio="xMidYMid meet">

<g transform="translate(0.000000,913.000000) scale(0.100000,-0.100000)"
fill="#000000" stroke="none">
<path d="M0 4580 l0 -4550 8030 0 8030 0 0 4550 0 4550 -8030 0 -8030 0 0
-4550z m2085 4097 c60 -60 57 -179 -6 -231 -28 -23 -39 -26 -115 -26 l-84 0 0
145 0 145 86 0 c84 0 87 -1 119 -33z m745 13 c0 -16 -7 -20 -30 -20 -23 0 -30
4 -30 20 0 16 7 20 30 20 23 0 30 -4 30 -20z m1110 17 c0 -2 23 -65 50 -141
28 -76 50 -140 50 -142 0 -2 -15 -4 -34 -4 -31 0 -36 4 -46 35 l-12 36 -56 -3
c-54 -3 -57 -4 -66 -35 -8 -29 -13 -33 -42 -33 l-34 0 36 98 c20 53 43 118 52
145 16 46 16 47 59 47 24 0 43 -1 43 -3z m950 -142 l0 -145 -30 0 c-16 0 -30
5 -30 10 0 7 -6 7 -19 0 -35 -18 -77 -12 -105 16 -22 22 -26 36 -26 81 0 45 4
58 26 80 22 22 32 25 70 20 l44 -5 0 44 c0 44 0 44 35 44 l35 0 0 -145z m580
120 c0 -24 -2 -25 -70 -25 l-70 0 0 -35 0 -35 60 0 c57 0 60 -1 60 -25 0 -24
-3 -25 -60 -25 l-60 0 0 -60 0 -60 -30 0 -30 0 0 145 0 145 100 0 100 0 0 -25z
m1620 -120 l0 -145 -30 0 c-16 0 -30 5 -30 10 0 7 -6 7 -19 0 -35 -18 -77 -12
-105 16 -22 22 -26 36 -26 81 0 45 4 58 26 80 22 22 32 25 70 20 l44 -5 0 44
c0 44 0 44 35 44 l35 0 0 -145z m-2800 100 c0 -28 4 -35 20 -35 13 0 20 -7 20
-20 0 -13 -7 -20 -20 -20 -18 0 -20 -7 -20 -65 0 -57 2 -65 18 -63 11 2 17 -3
17 -17 0 -17 -7 -20 -40 -20 -50 0 -65 25 -65 108 l0 59 -32 -7 c-52 -11 -58
-21 -58 -96 l0 -69 -35 0 -35 0 0 106 0 106 38 -3 c91 -5 122 0 122 21 0 17
40 48 63 50 4 0 7 -16 7 -35z m1930 0 c0 -28 4 -35 20 -35 13 0 20 -7 20 -20
0 -13 -7 -20 -20 -20 -19 0 -21 -5 -18 -62 3 -53 6 -63 21 -62 12 1 17 -5 17
-22 0 -21 -5 -24 -40 -24 -50 0 -60 17 -60 104 0 52 -3 66 -15 66 -8 0 -15 9
-15 20 0 11 7 20 15 20 8 0 15 8 15 19 0 17 34 49 53 50 4 1 7 -15 7 -34z
m-3873 -70 c32 -32 35 -39 30 -78 -4 -30 -15 -50 -38 -71 -28 -25 -37 -28 -82
-23 -39 3 -56 11 -74 31 -25 29 -31 92 -13 126 15 28 59 49 104 50 31 0 45 -7
73 -35z m243 25 c8 0 31 2 52 6 29 5 40 2 57 -15 18 -18 21 -33 21 -106 l0
-85 -30 0 -30 0 0 68 c0 79 -17 115 -44 93 -12 -10 -16 -32 -16 -87 l0 -74
-35 0 -35 0 0 80 c0 66 -3 82 -16 87 -28 11 -44 -25 -44 -99 l0 -68 -30 0 -30
0 0 105 0 104 83 -4 c45 -2 89 -5 97 -5z m240 -95 l0 -105 -30 0 -30 0 0 105
0 105 30 0 30 0 0 -105z m110 95 c0 -7 6 -7 19 0 23 12 71 13 87 2 24 -15 34
-54 34 -126 l0 -76 -35 0 -35 0 0 80 c0 64 -3 82 -16 87 -29 11 -46 -22 -52
-96 -5 -70 -5 -71 -33 -71 l-29 0 0 105 0 105 30 0 c17 0 30 -5 30 -10z m335
-12 c15 -14 28 -38 32 -60 l6 -38 -72 0 c-72 0 -83 -7 -55 -34 18 -18 40 -21
49 -6 9 14 52 13 61 -2 13 -20 -35 -48 -83 -48 -36 0 -50 6 -74 29 -24 24 -29
38 -29 76 0 38 5 52 29 76 38 37 97 40 136 7z m333 5 c17 -15 21 -33 24 -105
l4 -88 -28 0 c-15 0 -28 5 -28 10 0 7 -6 7 -19 0 -46 -24 -121 2 -121 43 0 28
32 57 69 63 50 8 65 18 58 38 -8 20 -46 21 -53 1 -7 -17 -32 -19 -54 -5 -13 9
-11 14 13 35 35 31 104 34 135 8z m897 -5 c15 -14 28 -38 32 -60 l6 -38 -72 0
c-72 0 -83 -7 -55 -34 18 -18 40 -21 49 -6 9 14 52 13 61 -2 13 -20 -35 -48
-83 -48 -36 0 -50 6 -74 29 -24 24 -29 38 -29 76 0 38 5 52 29 76 38 37 97 40
136 7z m580 8 c15 -11 20 -31 24 -105 l6 -91 -27 0 c-15 0 -30 5 -34 11 -4 8
-9 8 -17 0 -17 -17 -78 -13 -99 6 -10 9 -18 29 -18 45 0 30 29 49 93 63 15 3
27 12 27 21 0 22 -28 29 -49 10 -23 -21 -50 -21 -58 1 -16 42 105 74 152 39z
m557 8 c14 -9 -12 -44 -32 -44 -28 0 -40 -30 -40 -99 l0 -61 -30 0 -30 0 0
104 0 105 62 0 c35 -1 66 -3 70 -5z m199 -23 c23 -23 29 -38 29 -71 0 -52 -13
-76 -50 -95 -47 -24 -95 -19 -132 14 -28 25 -33 36 -33 76 0 40 5 51 33 76 46
41 111 41 153 0z m129 19 c0 -7 6 -7 19 0 23 12 71 13 87 2 24 -15 34 -54 34
-126 l0 -76 -35 0 -35 0 0 80 c0 64 -3 82 -16 87 -29 11 -46 -22 -52 -96 -5
-70 -5 -71 -33 -71 l-29 0 0 105 0 105 30 0 c17 0 30 -5 30 -10z m584 -1 c23
-11 36 -32 51 -86 6 -22 4 -23 -64 -23 -54 0 -71 -3 -71 -14 0 -27 27 -39 59
-26 16 6 40 9 52 5 l23 -8 -28 -23 c-38 -34 -108 -33 -141 1 -14 13 -25 31
-25 40 0 12 -13 15 -65 15 -63 0 -65 1 -65 26 0 25 1 26 65 22 57 -3 65 -1 65
15 0 10 12 29 26 42 29 27 76 33 118 14z m146 1 c0 -7 6 -7 19 0 31 16 79 12
101 -10 17 -17 20 -33 20 -105 l0 -85 -30 0 -30 0 0 68 c0 79 -17 114 -47 96
-14 -9 -19 -27 -21 -88 l-3 -76 -34 0 -35 0 0 105 0 105 30 0 c17 0 30 -5 30
-10z m-3200 -2010 c24 -24 25 -38 4 -68 -31 -45 -104 -22 -104 32 0 22 36 56
60 56 11 0 29 -9 40 -20z m106 6 c24 -18 10 -34 -16 -18 -12 7 -21 8 -25 2 -6
-9 1 -13 43 -26 7 -2 12 -14 10 -26 -2 -18 -10 -24 -39 -26 -26 -2 -38 1 -43
13 -5 14 -1 16 24 10 18 -4 30 -3 30 4 0 5 -10 11 -22 13 -41 6 -33 67 8 68 5
0 19 -6 30 -14z m7222 2 c19 -19 14 -29 -13 -22 -15 4 -25 2 -25 -5 0 -6 8
-11 19 -11 25 0 43 -23 35 -44 -8 -21 -75 -18 -82 3 -3 10 3 12 27 6 19 -4 31
-3 31 4 0 5 -10 11 -21 13 -31 4 -46 32 -30 52 16 19 42 21 59 4z m914 -5 c20
-18 24 -63 6 -81 -7 -7 -26 -12 -43 -12 -17 0 -36 5 -43 12 -20 20 -14 65 10
82 29 20 47 20 70 -1z m-9327 -3 c-3 -5 -13 -10 -21 -10 -8 0 -14 -4 -14 -10
0 -5 7 -10 15 -10 8 0 15 -4 15 -10 0 -5 -7 -10 -15 -10 -8 0 -15 -9 -15 -20
0 -11 -7 -20 -15 -20 -11 0 -15 12 -15 50 l0 50 36 0 c21 0 33 -4 29 -10z m45
-14 c0 -35 10 -56 26 -56 10 0 14 12 14 40 0 30 4 40 16 40 12 0 14 -10 12
-47 l-3 -48 -40 0 -40 0 -3 48 c-2 28 1 47 7 47 6 0 11 -11 11 -24z m163 -8
l16 -33 0 33 c1 21 6 32 16 32 11 0 15 -12 15 -50 0 -46 -2 -50 -23 -50 -16 0
-28 10 -40 33 l-16 32 0 -32 c-1 -22 -6 -33 -16 -33 -11 0 -15 12 -15 50 0 46
2 50 23 50 16 0 28 -10 40 -32z m169 7 c17 -37 -12 -75 -57 -75 l-35 0 0 50 0
50 40 0 c33 0 42 -4 52 -25z m98 0 c21 -55 23 -75 7 -75 -8 0 -17 7 -21 15 -3
8 -12 15 -20 15 -7 0 -16 -7 -20 -15 -3 -8 -12 -15 -20 -15 -13 0 -13 5 -2 33
7 17 16 40 19 50 10 26 46 21 57 -8z m87 5 c3 -11 9 -20 13 -20 5 0 12 9 15
20 3 11 15 20 26 20 16 0 19 -7 19 -50 0 -38 -4 -50 -15 -50 -9 0 -15 10 -16
23 0 12 -3 16 -6 10 -7 -19 -30 -16 -42 5 -9 14 -10 13 -11 -10 0 -18 -5 -28
-15 -28 -11 0 -15 12 -15 50 0 44 2 50 21 50 12 0 23 -8 26 -20z m173 10 c0
-5 -9 -10 -20 -10 -11 0 -20 -4 -20 -10 0 -5 9 -10 20 -10 11 0 20 -4 20 -10
0 -5 -9 -10 -20 -10 -11 0 -20 -4 -20 -10 0 -5 9 -10 20 -10 11 0 20 -4 20
-10 0 -5 -16 -10 -35 -10 l-35 0 0 50 0 50 35 0 c19 0 35 -4 35 -10z m84 -17
l15 -28 1 28 c0 17 5 27 15 27 11 0 15 -12 15 -50 0 -43 -3 -50 -20 -50 -12 0
-26 13 -37 33 l-18 32 -3 -32 c-5 -52 -22 -38 -22 17 0 43 3 50 20 50 11 0 26
-12 34 -27z m156 17 c0 -5 -7 -10 -15 -10 -11 0 -15 -11 -15 -40 0 -29 -4 -40
-15 -40 -11 0 -15 11 -15 40 0 29 -4 40 -15 40 -8 0 -15 5 -15 10 0 6 20 10
45 10 25 0 45 -4 45 -10z m7350 0 c0 -5 -9 -10 -20 -10 -27 0 -25 -18 3 -23
l22 -4 -22 -8 c-28 -9 -30 -25 -3 -25 11 0 20 -4 20 -10 0 -5 -16 -10 -35 -10
l-35 0 0 50 0 50 35 0 c19 0 35 -4 35 -10z m198 -4 c-12 -8 -18 -27 -18 -50 0
-25 -4 -36 -15 -36 -11 0 -15 11 -15 40 0 29 -4 40 -15 40 -8 0 -15 5 -15 10
0 6 21 10 48 10 41 -1 45 -2 30 -14z m62 -36 c0 -38 -4 -50 -15 -50 -11 0 -15
12 -15 50 0 38 4 50 15 50 11 0 15 -12 15 -50z m50 10 c0 -33 3 -40 20 -40 11
0 20 -4 20 -10 0 -5 -16 -10 -35 -10 l-35 0 0 50 c0 38 4 50 15 50 11 0 15
-11 15 -40z m90 -10 c0 -38 -4 -50 -15 -50 -11 0 -15 12 -15 50 0 38 4 50 15
50 11 0 15 -12 15 -50z m110 38 c0 -7 -12 -25 -27 -40 l-27 -28 27 0 c15 0 27
-4 27 -10 0 -5 -18 -10 -40 -10 -45 0 -52 16 -20 45 11 10 20 22 20 27 0 4 -9
8 -20 8 -11 0 -20 5 -20 10 0 6 18 10 40 10 24 0 40 -5 40 -12z m112 -40 c15
-42 16 -48 3 -48 -9 0 -18 7 -21 15 -4 8 -13 15 -20 15 -8 0 -17 -7 -20 -15
-4 -8 -12 -15 -20 -15 -17 0 -17 -3 2 54 13 38 20 47 37 44 15 -2 27 -17 39
-50z m92 25 l15 -28 1 28 c0 17 5 27 15 27 11 0 15 -12 15 -50 0 -43 -3 -50
-20 -50 -12 0 -26 13 -37 33 l-18 32 -3 -32 c-5 -52 -22 -38 -22 17 0 43 3 50
20 50 11 0 26 -12 34 -27z m164 15 c7 -7 12 -24 12 -38 0 -36 -17 -50 -62 -50
l-38 0 0 50 0 50 38 0 c21 0 43 -5 50 -12z m-5282 -1081 l322 -432 -400 -3
c-220 -1 -577 -1 -795 0 l-395 3 215 288 214 288 165 -220 164 -220 57 46 c31
24 57 47 57 50 0 3 -45 66 -100 140 l-101 135 24 32 c171 232 242 326 247 326
3 -1 150 -195 326 -433z m6240 0 l322 -432 -400 -3 c-220 -1 -577 -1 -795 0
l-395 3 215 288 214 288 165 -220 164 -220 57 46 c31 24 57 47 57 50 0 3 -45
66 -100 140 l-101 135 24 32 c171 232 242 326 247 326 3 -1 150 -195 326 -433z
m-9049 -1116 c10 -17 8 -18 -27 -18 -35 0 -37 1 -27 18 7 11 19 19 27 19 8 0
20 -8 27 -19z m8713 -7 c0 -9 -13 -12 -40 -11 -38 1 -47 6 -34 20 12 12 74 4
74 -9z m-10070 -24 c0 -27 3 -30 30 -30 27 0 30 3 30 30 0 23 4 30 20 30 18 0
20 -7 20 -80 0 -73 -2 -80 -20 -80 -16 0 -20 7 -20 35 0 32 -2 35 -30 35 -28
0 -30 -3 -30 -35 0 -28 -4 -35 -20 -35 -18 0 -20 7 -20 80 0 73 2 80 20 80 16
0 20 -7 20 -30z m323 -17 l14 -46 13 46 c11 42 16 47 41 47 l29 0 0 -80 c0
-73 -2 -80 -20 -80 -17 0 -20 7 -21 48 l-1 47 -12 -45 c-9 -33 -17 -46 -33
-48 -17 -3 -22 4 -29 40 l-8 43 -4 -42 c-2 -35 -7 -43 -23 -43 -17 0 -19 7
-19 65 0 63 -1 65 -25 65 -24 0 -25 -2 -25 -65 0 -51 -3 -65 -15 -65 -12 0
-15 14 -15 65 0 63 -1 65 -25 65 -16 0 -25 6 -25 15 0 12 17 15 95 15 l94 0
14 -47z m157 -18 l0 -65 40 0 c29 0 40 -4 40 -15 0 -12 -13 -15 -60 -15 l-60
0 0 80 c0 73 2 80 20 80 18 0 20 -7 20 -65z m445 43 c14 -21 14 -23 0 -26 -9
-2 -22 2 -30 8 -8 7 -23 9 -32 5 -14 -5 -9 -11 27 -28 72 -35 64 -97 -14 -97
-31 0 -66 24 -66 47 0 18 30 16 45 -4 7 -10 19 -14 29 -10 25 10 15 30 -20 39
-27 7 -54 32 -54 49 0 18 34 39 65 39 24 0 39 -7 50 -22z m655 3 c0 -11 6 -22
13 -25 10 -5 10 -7 0 -12 -15 -7 -18 -84 -3 -84 6 0 10 -5 10 -11 0 -6 -12 -9
-27 -7 -25 3 -28 7 -31 48 -2 24 -9 48 -15 53 -9 7 -9 10 1 14 6 2 12 11 12
18 0 12 13 22 33 24 4 1 7 -8 7 -18z m70 4 c0 -8 -9 -15 -20 -15 -11 0 -20 7
-20 15 0 8 9 15 20 15 11 0 20 -7 20 -15z m6755 -5 c16 -18 16 -20 1 -26 -9
-3 -23 -1 -31 6 -17 14 -51 5 -59 -16 -9 -24 4 -63 24 -69 10 -3 28 0 39 7 15
9 24 9 31 2 18 -18 -16 -44 -56 -44 -47 0 -74 29 -74 80 0 27 7 47 20 60 26
26 81 26 105 0z m143 8 c7 -7 12 -18 12 -25 0 -16 -32 -17 -48 -1 -9 9 -15 9
-24 0 -9 -9 -7 -13 8 -17 68 -21 91 -56 59 -89 -17 -16 -71 -22 -91 -8 -6 4
-16 17 -23 30 -10 19 -9 22 5 22 10 0 25 -7 35 -16 20 -18 53 -12 47 8 -3 7
-17 15 -32 19 -54 15 -70 44 -40 73 18 19 75 21 92 4z m144 -5 c10 -9 18 -20
18 -25 0 -12 -27 -10 -50 4 -14 9 -22 10 -31 1 -8 -8 1 -14 33 -24 36 -12 44
-19 46 -42 5 -39 -14 -57 -59 -57 -28 0 -42 6 -53 22 -9 12 -16 26 -16 30 0
14 33 8 45 -8 8 -11 19 -14 33 -10 33 11 27 23 -20 38 -46 14 -61 45 -38 74
17 19 69 18 92 -3z m128 2 c7 -8 10 -25 6 -39 -3 -14 -2 -28 4 -31 15 -9 12
-42 -6 -59 -27 -27 -94 -15 -94 16 0 12 38 10 45 -2 4 -6 11 -8 16 -5 15 10
10 43 -8 55 -13 8 -14 13 -5 16 14 7 16 44 2 44 -5 0 -10 -4 -10 -10 0 -5 -9
-10 -20 -10 -18 0 -19 3 -10 20 13 24 62 27 80 5z m410 0 c0 -11 -12 -15 -45
-15 -33 0 -45 -4 -45 -15 0 -11 11 -15 40 -15 29 0 40 -4 40 -15 0 -11 -11
-15 -40 -15 -33 0 -40 -3 -40 -20 0 -17 7 -20 45 -20 33 0 45 -4 45 -15 0 -12
-14 -15 -65 -15 l-65 0 0 80 0 80 65 0 c51 0 65 -3 65 -15z m180 -4 c0 -11 6
-22 13 -25 10 -5 10 -7 0 -12 -15 -7 -18 -84 -3 -84 6 0 10 -4 10 -10 0 -5
-11 -10 -25 -10 -26 0 -29 6 -39 81 -3 23 1 45 10 58 19 26 34 27 34 2z m70 4
c0 -8 -9 -15 -20 -15 -11 0 -20 7 -20 15 0 8 9 15 20 15 11 0 20 -7 20 -15z
m60 -65 c0 -73 -2 -80 -20 -80 -18 0 -20 7 -20 80 0 73 2 80 20 80 18 0 20 -7
20 -80z m70 65 c0 -8 -9 -15 -20 -15 -11 0 -20 7 -20 15 0 8 9 15 20 15 11 0
20 -7 20 -15z m788 -37 c11 -29 25 -65 31 -80 9 -25 8 -28 -10 -28 -12 0 -23
8 -26 20 -4 14 -14 20 -35 20 -21 0 -31 -6 -35 -20 -3 -12 -14 -20 -25 -20
-12 0 -18 5 -16 13 3 6 16 42 29 80 20 55 28 67 46 67 17 0 26 -11 41 -52z
m782 -28 l0 -80 -42 0 c-50 0 -78 22 -78 61 0 34 24 59 56 59 17 0 24 5 24 20
0 13 7 20 20 20 18 0 20 -7 20 -80z m-10462 28 c7 -7 12 -22 12 -35 0 -20 -5
-23 -35 -23 -35 0 -46 -12 -23 -26 6 -4 14 -2 16 4 4 13 42 17 42 4 0 -16 -25
-32 -51 -32 -29 0 -59 31 -59 60 0 9 7 26 16 38 17 24 62 30 82 10z m330 0 c7
-7 12 -22 12 -35 0 -20 -5 -23 -35 -23 -35 0 -46 -12 -23 -26 6 -4 14 -2 16 4
4 13 42 17 42 4 0 -16 -25 -32 -51 -32 -29 0 -59 31 -59 60 0 9 7 26 16 38 17
24 62 30 82 10z m200 -50 c2 -46 0 -58 -12 -58 -11 0 -16 13 -18 45 -4 61 -22
62 -26 3 -3 -39 -7 -48 -22 -48 -15 0 -19 9 -22 48 -2 26 -7 47 -13 47 -5 0
-11 -21 -13 -47 -3 -40 -6 -48 -23 -48 -17 0 -19 7 -19 59 l0 59 83 -2 82 -1
3 -57z m122 43 c5 -11 10 -38 10 -61 l0 -41 -52 3 c-51 3 -53 4 -53 32 0 24 6
31 33 40 40 14 32 27 -12 19 -28 -6 -30 -5 -17 10 19 24 77 22 91 -2z m124 13
c12 -5 16 -20 16 -60 0 -47 -2 -54 -20 -54 -17 0 -20 7 -20 51 0 66 -24 62
-28 -4 -3 -39 -6 -47 -23 -47 -17 0 -19 7 -19 60 l0 60 39 0 c22 0 46 -3 55
-6z m156 -54 c0 -53 -2 -60 -20 -60 -18 0 -20 7 -20 60 0 53 2 60 20 60 18 0
20 -7 20 -60z m110 45 c18 -21 3 -32 -22 -16 -17 11 -22 11 -29 -1 -5 -7 -9
-20 -9 -28 0 -8 4 -21 9 -28 8 -14 16 -12 71 20 8 4 27 13 43 19 36 15 35 30
-3 23 -19 -4 -30 -2 -30 5 0 14 44 25 74 17 21 -5 25 -13 28 -60 l3 -54 -47 0
c-28 -1 -51 5 -58 13 -10 12 -14 12 -27 0 -19 -20 -67 -19 -83 1 -8 8 -13 28
-13 44 0 16 5 36 13 44 16 20 64 21 80 1z m7244 -1 c9 -8 16 -24 16 -35 0 -15
-7 -19 -35 -19 -33 0 -43 -8 -28 -23 3 -4 12 -2 19 4 7 6 21 9 30 7 17 -3 17
-4 0 -20 -37 -38 -96 -12 -96 42 0 35 23 60 55 60 13 0 31 -7 39 -16z m334 -3
c4 -11 -2 -13 -27 -8 -40 8 -41 -8 -1 -22 35 -12 47 -35 30 -56 -19 -23 -100
-17 -100 7 0 6 14 8 35 4 43 -8 47 8 5 23 -36 12 -47 35 -29 57 15 19 80 15
87 -5z m142 -41 c0 -53 -2 -60 -20 -60 -18 0 -20 7 -20 60 0 53 2 60 20 60 18
0 20 -7 20 -60z m130 0 c0 -53 -2 -60 -20 -60 -18 0 -20 7 -20 60 0 53 2 60
20 60 18 0 20 -7 20 -60z m110 48 c0 -6 -11 -26 -25 -44 -14 -18 -25 -35 -25
-38 0 -3 11 -6 25 -6 14 0 25 -4 25 -10 0 -5 -22 -10 -50 -10 -58 0 -62 8 -25
63 l26 37 -26 0 c-14 0 -25 5 -25 10 0 6 23 10 50 10 31 0 50 -4 50 -12z m110
-7 c5 -11 10 -38 10 -61 l0 -41 -52 3 c-51 3 -53 4 -53 32 0 24 6 31 33 40 40
14 32 27 -12 19 -28 -6 -30 -5 -17 10 19 24 77 22 91 -2z m120 4 c18 -21 3
-32 -22 -16 -17 11 -22 11 -29 -1 -5 -7 -9 -20 -9 -28 0 -8 4 -21 9 -28 8 -14
16 -12 71 20 8 4 27 13 43 19 36 15 35 30 -3 23 -19 -4 -30 -2 -30 5 0 14 44
25 74 17 21 -5 25 -13 28 -60 l3 -54 -47 0 c-28 -1 -51 5 -58 13 -10 12 -14
12 -25 2 -7 -8 -14 -22 -17 -33 -2 -13 -12 -20 -33 -21 -17 -1 -22 1 -12 3 23
7 22 11 -10 38 -29 25 -36 74 -13 100 16 20 64 21 80 1z m252 -2 c38 -34 11
-103 -40 -103 -54 0 -81 62 -45 102 20 22 61 23 85 1z m275 -15 l10 -33 13 33
c7 20 19 32 30 32 18 0 18 -2 -2 -60 -26 -79 -47 -81 -77 -4 -25 67 -25 64 -2
64 12 0 22 -11 28 -32z m178 20 c2 -7 5 -35 8 -61 l5 -48 -52 3 c-49 3 -51 4
-51 32 0 24 6 31 33 40 40 14 32 27 -12 19 -28 -6 -30 -5 -17 10 16 20 80 23
86 5z m132 0 c7 -6 13 -32 13 -59 0 -42 -3 -49 -19 -49 -17 0 -20 8 -23 48 -2
26 -7 47 -13 47 -5 0 -11 -21 -13 -47 -3 -40 -6 -48 -23 -48 -17 0 -19 7 -19
59 l0 59 42 0 c23 1 48 -4 55 -10z m129 -5 c17 -17 17 -18 0 -21 -9 -2 -23 2
-31 8 -11 9 -16 7 -25 -9 -14 -27 5 -70 23 -52 13 13 47 15 47 2 0 -6 -5 -13
-11 -16 -5 -4 -14 -18 -19 -31 -7 -18 -17 -24 -37 -23 -17 1 -21 3 -10 6 23 6
22 11 -8 35 -19 14 -25 29 -25 57 0 20 5 42 12 49 18 18 64 15 84 -5z m119 5
c2 -7 5 -35 8 -61 l5 -48 -52 3 c-49 3 -51 4 -51 32 0 24 6 31 33 40 40 14 32
27 -12 19 -28 -6 -30 -5 -17 10 16 20 80 23 86 5z m253 0 c7 -7 12 -33 12 -59
l0 -46 -44 -1 c-72 -2 -90 47 -26 69 39 14 39 33 0 24 -28 -6 -39 3 -23 18 11
12 68 8 81 -5z m-6132 -1903 c-3 -8 -1 -15 5 -15 5 0 14 -11 21 -25 9 -19 8
-29 -6 -50 -21 -32 -80 -36 -96 -6 -16 31 -12 50 18 78 15 15 21 23 15 19 -7
-4 -13 -2 -13 3 0 6 14 11 31 11 24 0 30 -4 25 -15z m-4784 -22 c20 -18 24
-63 6 -81 -7 -7 -26 -12 -43 -12 -17 0 -36 5 -43 12 -20 20 -14 65 10 82 29
20 47 20 70 -1z m449 7 c10 -6 19 -17 19 -25 0 -17 -16 -20 -25 -5 -9 15 -42
12 -49 -5 -13 -36 24 -61 52 -33 15 15 26 4 19 -17 -8 -18 -67 -21 -85 -3 -17
17 -15 64 4 82 18 19 38 20 65 6z m941 -7 c20 -18 24 -63 6 -81 -7 -7 -26 -12
-43 -12 -17 0 -36 5 -43 12 -20 20 -14 65 10 82 29 20 47 20 70 -1z m3029 7
c10 -6 19 -17 19 -25 0 -17 -16 -20 -25 -5 -3 6 -15 10 -26 10 -14 0 -19 -7
-19 -25 0 -28 25 -44 43 -26 6 6 17 11 24 11 11 0 11 -5 3 -20 -12 -23 -68
-28 -88 -8 -17 17 -15 58 5 80 18 20 36 23 64 8z m240 0 c10 -6 19 -17 19 -25
0 -17 -16 -20 -25 -5 -3 6 -15 10 -26 10 -14 0 -19 -7 -19 -25 0 -30 24 -43
45 -25 24 20 42 7 19 -16 -10 -10 -19 -26 -19 -34 0 -8 -8 -16 -17 -18 -12 -2
-18 3 -18 15 0 10 -9 24 -20 31 -25 15 -26 58 -3 84 18 20 36 23 64 8z m345
-7 c20 -20 2 -32 -20 -13 -10 7 -16 8 -21 0 -6 -9 1 -13 43 -26 7 -2 12 -14
10 -26 -2 -19 -9 -23 -42 -23 -24 0 -41 5 -44 14 -3 10 3 12 27 6 20 -4 31 -3
31 4 0 6 -8 11 -18 11 -18 0 -42 18 -42 31 0 13 31 39 45 39 7 0 21 -8 31 -17z
m3410 0 c20 -20 2 -32 -20 -13 -10 7 -16 8 -21 0 -6 -9 1 -13 43 -26 7 -2 12
-14 10 -26 -2 -19 -9 -23 -42 -23 -24 0 -41 5 -44 14 -3 10 3 12 27 6 20 -4
31 -3 31 4 0 6 -8 11 -18 11 -18 0 -42 18 -42 31 0 13 31 39 45 39 7 0 21 -8
31 -17z m175 7 c10 -6 19 -17 19 -25 0 -17 -16 -20 -25 -5 -9 15 -42 12 -49
-5 -8 -23 4 -45 25 -45 21 0 26 16 7 23 -7 3 1 6 19 6 29 1 32 -1 24 -21 -9
-26 -63 -37 -87 -17 -19 15 -18 64 2 83 18 19 38 20 65 6z m247 -2 c19 -19 14
-29 -13 -22 -15 4 -25 2 -25 -5 0 -6 8 -11 19 -11 25 0 43 -23 35 -44 -8 -21
-75 -18 -82 3 -3 10 3 12 27 6 19 -4 31 -3 31 4 0 5 -10 11 -21 13 -31 4 -46
32 -30 52 16 19 42 21 59 4z m-8950 -30 c3 -22 -2 -29 -22 -34 -14 -3 -26 -12
-26 -20 0 -8 -7 -14 -15 -14 -11 0 -15 12 -15 51 l0 50 38 -3 c32 -3 37 -7 40
-30z m232 22 c0 -5 -7 -10 -15 -10 -11 0 -15 -11 -15 -40 0 -29 -4 -40 -15
-40 -11 0 -15 11 -15 36 0 23 -6 42 -17 50 -16 12 -12 13 30 14 26 0 47 -4 47
-10z m90 0 c0 -5 -9 -10 -20 -10 -11 0 -20 -4 -20 -10 0 -5 9 -10 20 -10 11 0
20 -4 20 -10 0 -5 -9 -10 -20 -10 -11 0 -20 -4 -20 -10 0 -5 9 -10 20 -10 11
0 20 -4 20 -10 0 -5 -16 -10 -35 -10 l-35 0 0 50 0 50 35 0 c19 0 35 -4 35
-10z m87 -22 l18 -33 3 33 c5 51 22 37 22 -18 0 -43 -3 -50 -20 -50 -11 0 -26
12 -34 28 l-15 27 -1 -27 c0 -18 -5 -28 -15 -28 -11 0 -15 12 -15 50 0 43 3
50 20 50 12 0 26 -13 37 -32z m233 -18 c0 -38 -4 -50 -15 -50 -11 0 -15 12
-15 50 0 38 4 50 15 50 11 0 15 -12 15 -50z m100 25 c21 -55 23 -75 7 -75 -8
0 -17 7 -21 15 -3 8 -12 15 -20 15 -7 0 -16 -7 -20 -15 -3 -8 -12 -15 -20 -15
-13 0 -13 5 -2 33 7 17 16 40 19 50 10 26 46 21 57 -8z m80 -15 c0 -33 3 -40
20 -40 11 0 20 -4 20 -10 0 -5 -16 -10 -35 -10 l-35 0 0 50 c0 38 4 50 15 50
11 0 15 -11 15 -40z m90 -10 c0 -38 -4 -50 -15 -50 -11 0 -15 12 -15 50 0 38
4 50 15 50 11 0 15 -12 15 -50z m100 38 c0 -7 -12 -25 -27 -40 l-27 -28 27 0
c15 0 27 -4 27 -10 0 -5 -18 -10 -40 -10 -45 0 -52 16 -20 45 11 10 20 22 20
27 0 4 -9 8 -20 8 -11 0 -20 5 -20 10 0 6 18 10 40 10 24 0 40 -5 40 -12z
m112 -38 c13 -40 13 -50 3 -50 -7 0 -15 7 -19 15 -3 8 -12 15 -21 15 -9 0 -18
-7 -21 -15 -4 -8 -12 -15 -20 -15 -17 0 -17 -3 2 53 12 37 21 47 38 47 18 0
25 -10 38 -50z m95 18 l18 -33 3 33 c5 51 22 37 22 -18 0 -43 -3 -50 -20 -50
-11 0 -26 12 -34 28 l-15 27 -1 -27 c0 -18 -5 -28 -15 -28 -11 0 -15 12 -15
50 0 43 3 50 20 50 12 0 26 -13 37 -32z m161 20 c7 -7 12 -24 12 -38 0 -36
-17 -50 -62 -50 l-38 0 0 50 0 50 38 0 c21 0 43 -5 50 -12z m2784 -38 c13 -40
13 -50 3 -50 -7 0 -15 7 -19 15 -3 8 -12 15 -21 15 -9 0 -18 -7 -21 -15 -4 -8
-12 -15 -20 -15 -17 0 -17 -3 2 53 12 37 21 47 38 47 18 0 25 -10 38 -50z
m116 18 c3 -22 -2 -29 -22 -34 -14 -3 -26 -12 -26 -20 0 -8 -7 -14 -15 -14
-11 0 -15 12 -15 51 l0 50 38 -3 c32 -3 37 -7 40 -30z m52 -8 c0 -33 3 -40 20
-40 11 0 20 -4 20 -10 0 -5 -16 -10 -35 -10 l-35 0 0 50 c0 38 4 50 15 50 11
0 15 -11 15 -40z m90 -10 c0 -38 -4 -50 -15 -50 -11 0 -15 12 -15 50 0 38 4
50 15 50 11 0 15 -12 15 -50z m242 -2 c15 -42 16 -48 3 -48 -9 0 -18 7 -21 15
-4 8 -13 15 -20 15 -8 0 -17 -7 -20 -15 -4 -8 -12 -15 -20 -15 -17 0 -17 -3 2
54 13 38 20 47 37 44 15 -2 27 -17 39 -50z m358 42 c0 -5 -9 -10 -20 -10 -11
0 -20 -4 -20 -10 0 -5 9 -10 20 -10 11 0 20 -4 20 -10 0 -5 -9 -10 -20 -10
-11 0 -20 -4 -20 -10 0 -5 9 -10 20 -10 11 0 20 -4 20 -10 0 -5 -16 -10 -35
-10 l-35 0 0 50 0 50 35 0 c19 0 35 -4 35 -10z m3314 -22 c13 -37 -14 -68 -61
-68 l-33 0 0 51 0 50 42 -3 c36 -3 44 -7 52 -30z m96 22 c0 -5 -9 -10 -20 -10
-11 0 -20 -4 -20 -10 0 -5 9 -10 20 -10 11 0 20 -4 20 -10 0 -5 -9 -10 -20
-10 -11 0 -20 -4 -20 -10 0 -5 9 -10 20 -10 11 0 20 -4 20 -10 0 -5 -16 -10
-35 -10 l-35 0 0 50 0 50 35 0 c19 0 35 -4 35 -10z m160 -40 c0 -38 -4 -50
-15 -50 -11 0 -15 12 -15 50 0 38 4 50 15 50 11 0 15 -12 15 -50z m223 18 l16
-33 0 33 c1 21 6 32 16 32 11 0 15 -12 15 -50 0 -46 -2 -50 -23 -50 -16 0 -28
10 -40 33 l-16 32 0 -32 c-1 -22 -6 -33 -16 -33 -11 0 -15 12 -15 50 0 46 2
50 23 50 16 0 28 -10 40 -32z m-6987 -1061 l322 -432 -400 -3 c-220 -1 -577
-1 -795 0 l-395 3 215 288 214 288 165 -220 164 -220 57 46 c31 24 57 47 57
50 0 3 -45 66 -100 140 l-101 135 24 32 c171 232 242 326 247 326 3 -1 150
-195 326 -433z m4160 0 l322 -432 -400 -3 c-220 -1 -577 -1 -795 0 l-395 3
215 288 214 288 165 -220 164 -220 57 46 c31 24 57 47 57 50 0 3 -45 66 -100
140 l-101 135 24 32 c171 232 242 326 247 326 3 -1 150 -195 326 -433z m4160
0 l322 -432 -400 -3 c-220 -1 -577 -1 -795 0 l-395 3 215 288 214 288 165
-220 164 -220 57 46 c31 24 57 47 57 50 0 3 -45 66 -100 140 l-101 135 24 32
c171 232 242 326 247 326 3 -1 150 -195 326 -433z m-10346 -1175 c0 -70 -19
-102 -60 -102 -28 0 -50 22 -50 49 0 17 37 13 44 -5 12 -31 26 -1 26 57 0 52
2 59 20 59 18 0 20 -7 20 -58z m760 43 c0 -8 -9 -15 -20 -15 -11 0 -20 7 -20
15 0 8 9 15 20 15 11 0 20 -7 20 -15z m200 -4 c0 -11 6 -22 13 -25 10 -5 10
-7 0 -12 -15 -7 -18 -84 -3 -84 6 0 10 -5 10 -11 0 -6 -12 -9 -27 -7 -25 3
-28 7 -31 48 -2 24 -8 48 -14 51 -6 4 -1 17 13 33 27 31 39 33 39 7z m160 -28
l13 -48 11 45 c10 38 16 45 39 48 l27 3 0 -80 c0 -63 -3 -81 -14 -81 -15 0
-26 20 -27 53 -1 24 -4 18 -13 -25 -10 -46 -43 -37 -54 14 l-10 43 -1 -42 c-1
-36 -4 -43 -21 -43 -18 0 -20 7 -20 80 l0 80 29 0 c26 0 30 -5 41 -47z m360
-34 l0 -80 -47 3 c-41 3 -50 7 -61 31 -18 38 2 81 41 85 19 2 27 9 27 23 0 12
7 19 20 19 18 0 20 -7 20 -81z m2700 66 c0 -11 -11 -15 -40 -15 -29 0 -40 -4
-40 -15 0 -10 11 -15 35 -15 24 0 35 -5 35 -15 0 -10 -11 -15 -35 -15 -33 0
-35 -2 -35 -35 0 -28 -4 -35 -20 -35 -18 0 -20 7 -20 80 l0 80 60 0 c47 0 60
-3 60 -15z m970 -22 c0 -34 1 -35 18 -20 10 10 27 17 37 17 18 0 18 -1 0 -20
-18 -19 -18 -22 -2 -56 21 -42 21 -44 2 -44 -8 0 -19 9 -25 20 -14 26 -30 26
-30 0 0 -13 -7 -20 -20 -20 -18 0 -20 7 -20 54 0 48 -2 54 -19 49 -20 -5 -31
-30 -31 -75 0 -18 -5 -28 -15 -28 -12 0 -15 13 -15 60 l0 60 40 0 c33 0 40 3
40 20 0 13 7 20 20 20 16 0 20 -7 20 -37z m390 22 c0 -11 -11 -15 -40 -15 -29
0 -40 -4 -40 -15 0 -10 11 -15 35 -15 24 0 35 -5 35 -15 0 -10 -11 -15 -35
-15 -33 0 -35 -2 -35 -35 0 -28 -4 -35 -20 -35 -18 0 -20 7 -20 80 l0 80 60 0
c47 0 60 -3 60 -15z m410 -4 c0 -11 6 -22 13 -25 10 -5 10 -7 0 -12 -15 -7
-18 -84 -3 -84 6 0 10 -5 10 -11 0 -6 -12 -9 -27 -7 -25 3 -28 7 -31 48 -2 24
-8 48 -14 51 -6 4 -1 17 13 33 27 31 39 33 39 7z m470 -60 l0 -79 -42 0 c-54
-1 -68 11 -68 58 0 44 20 64 55 58 21 -4 25 -1 25 18 0 15 6 24 15 24 12 0 15
-15 15 -79z m1924 57 c9 -12 16 -38 16 -58 0 -59 -22 -80 -86 -80 l-54 0 0 80
0 80 54 0 c45 0 58 -4 70 -22z m316 7 c0 -8 -9 -15 -20 -15 -11 0 -20 7 -20
15 0 8 9 15 20 15 11 0 20 -7 20 -15z m478 3 c17 -17 15 -55 -5 -66 -15 -9
-14 -12 5 -37 27 -34 28 -45 5 -45 -10 0 -32 17 -50 37 l-32 38 -1 -37 c0 -31
-4 -38 -20 -38 -18 0 -20 7 -20 80 l0 80 53 0 c29 0 58 -5 65 -12z m842 -3 c0
-8 -9 -15 -20 -15 -11 0 -20 7 -20 15 0 8 9 15 20 15 11 0 20 -7 20 -15z
m-9865 -37 c2 -7 5 -35 8 -61 l5 -48 -52 3 c-49 3 -51 4 -51 32 0 24 6 31 33
40 40 14 32 27 -12 19 -28 -6 -30 -5 -17 10 16 20 80 23 86 5z m67 -20 l12
-33 13 33 c11 28 43 46 43 25 0 -26 -41 -109 -54 -111 -16 -4 -37 33 -51 91
-11 41 23 36 37 -5z m176 20 c7 -7 12 -33 12 -59 l0 -46 -44 -1 c-72 -2 -90
47 -26 69 39 14 39 33 0 24 -28 -6 -39 3 -23 18 11 12 68 8 81 -5z m123 -5
c13 -15 11 -16 -23 -9 -47 9 -50 -6 -4 -22 19 -7 37 -19 40 -27 14 -38 -77
-63 -105 -28 -13 15 -11 16 23 9 44 -8 61 10 18 19 -36 8 -52 32 -39 57 13 23
72 24 90 1z m127 5 c7 -7 12 -16 12 -20 0 -13 -38 -9 -42 4 -7 21 -28 -3 -28
-32 0 -29 21 -53 28 -32 4 13 42 17 42 4 0 -16 -25 -32 -51 -32 -36 0 -59 24
-59 60 0 16 7 36 16 44 18 19 65 21 82 4z m152 -48 c0 -53 -2 -60 -20 -60 -18
0 -20 7 -20 54 0 48 -2 54 -19 49 -20 -5 -31 -30 -31 -75 0 -18 -5 -28 -15
-28 -12 0 -15 13 -15 60 l0 60 60 0 60 0 0 -60z m130 28 c13 -25 13 -31 0 -55
-10 -18 -26 -29 -43 -31 -15 -2 -27 -10 -27 -18 0 -8 -9 -14 -20 -14 -18 0
-20 7 -20 76 l0 75 47 -3 c40 -3 50 -7 63 -30z m442 15 c38 -34 11 -103 -40
-103 -54 0 -81 62 -45 102 20 22 61 23 85 1z m262 -5 c25 -35 20 -48 -19 -48
-19 0 -35 -4 -35 -9 0 -15 18 -23 25 -11 3 5 16 10 27 10 20 0 21 -1 3 -20
-20 -22 -64 -27 -83 -8 -19 19 -15 85 6 97 28 17 60 12 76 -11z m224 -40 c3
-53 1 -58 -18 -58 -17 0 -20 6 -20 51 0 66 -24 62 -28 -4 -3 -39 -6 -47 -23
-47 -16 0 -19 7 -19 54 0 48 -2 54 -19 49 -20 -5 -31 -30 -31 -75 0 -18 -5
-28 -15 -28 -12 0 -15 13 -15 60 l0 61 93 -3 92 -3 3 -57z m126 46 c9 -8 16
-28 16 -44 0 -36 -24 -60 -60 -60 -30 0 -60 30 -60 60 0 50 69 79 104 44z
m2423 7 c6 -3 12 -29 14 -58 l4 -51 -47 0 c-74 -1 -93 47 -28 69 39 14 39 30
0 23 -18 -4 -30 -2 -30 4 0 5 -9 8 -19 5 -20 -5 -31 -30 -31 -75 0 -18 -5 -28
-15 -28 -12 0 -15 13 -15 59 l0 60 79 -1 c43 0 83 -3 88 -7z m201 -4 c6 -5 12
-31 12 -58 0 -42 -3 -49 -19 -49 -16 0 -20 8 -23 45 -4 61 -22 62 -26 3 -3
-40 -6 -48 -23 -48 -16 0 -19 7 -19 51 0 66 -24 62 -28 -4 -3 -39 -6 -47 -23
-47 -17 0 -19 7 -19 60 l0 60 78 -1 c42 -1 83 -6 90 -12z m120 1 c7 -7 12 -22
12 -35 0 -20 -5 -23 -35 -23 -35 0 -46 -12 -23 -26 6 -4 14 -2 16 4 4 13 42
17 42 4 0 -16 -25 -32 -51 -32 -29 0 -59 31 -59 60 0 9 7 26 16 38 17 24 62
30 82 10z m67 -20 l7 -33 9 33 c6 21 16 32 28 32 12 0 21 -11 28 -32 l10 -33
7 33 c5 22 13 32 26 32 18 0 18 -2 3 -52 -19 -66 -20 -68 -44 -68 -12 0 -19 7
-19 19 0 29 -18 35 -22 9 -2 -14 -11 -24 -24 -26 -17 -2 -23 5 -33 40 -7 24
-15 51 -17 61 -4 12 0 17 14 17 14 0 22 -9 27 -32z m237 15 c38 -34 11 -103
-40 -103 -54 0 -81 62 -45 102 20 22 61 23 85 1z m336 -2 c4 -11 -2 -13 -27
-8 -40 8 -41 -8 -1 -22 35 -12 47 -35 30 -56 -19 -23 -100 -17 -100 7 0 6 14
8 35 4 43 -8 47 8 5 23 -36 12 -47 35 -29 57 15 19 80 15 87 -5z m302 9 c0 -5
-6 -10 -14 -10 -17 0 -26 -22 -26 -66 0 -27 -4 -34 -20 -34 -18 0 -20 7 -20
60 l0 60 40 0 c22 0 40 -4 40 -10z m105 -4 c42 -30 14 -106 -40 -106 -35 0
-58 24 -58 60 0 36 23 60 58 60 12 0 30 -6 40 -14z m145 -6 c5 -10 10 -37 10
-59 0 -34 -3 -41 -20 -41 -17 0 -20 7 -20 44 0 46 -16 69 -31 45 -5 -8 -9 -31
-9 -51 0 -31 -4 -38 -20 -38 -18 0 -20 7 -20 59 l0 59 50 0 c39 1 52 -3 60
-18z m264 -2 c25 -35 20 -48 -19 -48 -19 0 -35 -4 -35 -9 0 -15 18 -23 25 -11
3 5 16 10 27 10 20 0 21 -1 3 -20 -24 -26 -71 -26 -87 0 -9 13 -24 20 -45 20
-23 0 -33 5 -33 15 0 10 11 15 35 15 24 0 35 5 35 15 0 36 71 46 94 13z m133
10 c7 -6 13 -32 13 -59 0 -42 -3 -49 -19 -49 -17 0 -20 8 -23 48 -2 26 -7 47
-13 47 -5 0 -11 -21 -13 -47 -3 -40 -6 -48 -23 -48 -17 0 -19 7 -19 59 l0 59
42 0 c23 1 48 -4 55 -10z m2191 0 c5 -7 13 -23 16 -35 7 -21 4 -23 -33 -23
-40 0 -53 -12 -29 -26 6 -4 14 -2 16 4 4 13 42 17 42 4 0 -16 -25 -32 -51 -32
-29 0 -59 31 -59 60 0 9 7 26 16 38 17 24 65 30 82 10z m123 -5 c13 -15 11
-16 -23 -9 -47 9 -50 -6 -4 -22 19 -7 37 -19 40 -27 14 -38 -77 -63 -105 -28
-13 15 -11 16 23 9 44 -8 61 10 18 19 -36 8 -52 32 -39 57 13 23 72 24 90 1z
m69 -43 c0 -53 -2 -60 -20 -60 -18 0 -20 7 -20 60 0 53 2 60 20 60 18 0 20 -7
20 -60z m140 1 c0 -85 -4 -91 -60 -91 -27 0 -52 5 -56 11 -4 7 6 10 31 7 22
-2 40 2 42 8 2 7 -5 10 -20 7 -31 -6 -57 20 -57 57 0 41 24 60 76 60 l44 0 0
-59z m128 -3 c3 -53 1 -58 -18 -58 -17 0 -20 6 -20 51 0 66 -24 62 -28 -4 -3
-39 -6 -47 -23 -47 -17 0 -19 7 -19 61 l0 60 53 -3 52 -3 3 -57z m336 40 c25
-35 20 -48 -19 -48 -19 0 -35 -4 -35 -9 0 -15 18 -23 25 -11 3 5 16 10 27 10
20 0 21 -1 3 -20 -20 -22 -64 -27 -83 -8 -19 19 -15 85 6 97 28 17 60 12 76
-11z m124 3 c4 -11 -2 -13 -27 -8 -40 8 -41 -8 -1 -22 35 -12 47 -35 30 -56
-19 -23 -100 -17 -100 7 0 6 14 8 35 4 43 -8 47 8 5 23 -36 12 -47 35 -29 57
15 19 80 15 87 -5z m142 -13 c13 -25 13 -31 0 -55 -10 -18 -26 -29 -43 -31
-15 -2 -27 -10 -27 -18 0 -8 -9 -14 -20 -14 -18 0 -20 7 -20 76 l0 75 47 -3
c40 -3 50 -7 63 -30z m122 15 c38 -34 11 -103 -40 -103 -54 0 -81 62 -45 102
20 22 61 23 85 1z m132 11 c12 -5 16 -20 16 -60 0 -47 -2 -54 -20 -54 -17 0
-20 7 -20 51 0 66 -24 62 -28 -4 -3 -39 -6 -47 -23 -47 -17 0 -19 7 -19 60 l0
60 39 0 c22 0 46 -3 55 -6z m134 -13 c4 -11 -2 -13 -27 -8 -40 8 -41 -8 -1
-22 35 -12 47 -35 30 -56 -19 -23 -100 -17 -100 7 0 6 14 8 35 4 20 -4 35 -3
35 3 0 5 -16 15 -35 21 -37 12 -46 35 -23 58 17 17 80 11 86 -7z m62 -41 c0
-53 -2 -60 -20 -60 -18 0 -20 7 -20 60 0 53 2 60 20 60 18 0 20 -7 20 -60z
m62 28 l12 -33 13 33 c11 28 43 46 43 25 0 -26 -41 -109 -54 -111 -16 -4 -37
33 -51 91 -11 41 23 36 37 -5z m183 18 c42 -30 14 -106 -40 -106 -35 0 -58 24
-58 60 0 36 23 60 58 60 12 0 30 -6 40 -14z"/>
<path d="M1940 8565 l0 -95 38 0 c54 0 73 18 79 73 10 82 -17 117 -89 117
l-28 0 0 -95z"/>
<path d="M3877 8596 c-9 -27 -17 -51 -17 -53 0 -2 16 -3 36 -3 39 0 39 2 10
75 l-12 30 -17 -49z"/>
<path d="M4756 8574 c-32 -31 -12 -114 28 -114 23 0 36 24 36 65 0 60 -30 83
-64 49z"/>
<path d="M6956 8574 c-32 -31 -12 -114 28 -114 23 0 36 24 36 65 0 60 -30 83
-64 49z"/>
<path d="M2237 8572 c-23 -25 -21 -75 3 -97 17 -15 24 -16 45 -7 47 22 31 122
-20 122 -7 0 -19 -8 -28 -18z"/>
<path d="M3186 8574 c-25 -25 -19 -34 24 -34 22 0 40 4 40 9 0 12 -29 41 -40
41 -5 0 -16 -7 -24 -16z"/>
<path d="M3540 8510 c-29 -7 -39 -37 -15 -46 20 -8 48 18 43 38 -2 10 -11 12
-28 8z"/>
<path d="M4416 8574 c-25 -25 -19 -34 24 -34 22 0 40 4 40 9 0 12 -29 41 -40
41 -5 0 -16 -7 -24 -16z"/>
<path d="M4993 8503 c-16 -6 -17 -29 -3 -38 18 -11 50 6 50 26 0 19 -19 24
-47 12z"/>
<path d="M5738 8579 c-13 -7 -18 -23 -18 -55 0 -38 4 -46 25 -56 21 -9 28 -8
45 7 25 23 26 76 2 98 -21 19 -30 20 -54 6z"/>
<path d="M6482 8578 c-23 -23 -13 -38 23 -38 22 0 35 5 35 13 0 16 -20 37 -35
37 -6 0 -16 -5 -23 -12z"/>
<path d="M3434 6585 c-9 -23 3 -45 25 -45 20 0 37 32 26 50 -9 15 -45 12 -51
-5z"/>
<path d="M11680 6575 c0 -32 28 -45 46 -21 17 24 7 46 -22 46 -19 0 -24 -5
-24 -25z"/>
<path d="M2730 6570 c0 -35 25 -42 35 -10 8 24 -1 40 -21 40 -9 0 -14 -11 -14
-30z"/>
<path d="M2850 6580 c0 -5 5 -10 11 -10 5 0 7 5 4 10 -3 6 -8 10 -11 10 -2 0
-4 -4 -4 -10z"/>
<path d="M11315 6580 c-3 -5 -1 -10 4 -10 6 0 11 5 11 10 0 6 -2 10 -4 10 -3
0 -8 -4 -11 -10z"/>
<path d="M11560 6570 c0 -25 4 -31 18 -28 11 2 17 12 17 28 0 16 -6 26 -17 28
-14 3 -18 -3 -18 -28z"/>
<path d="M12516 4344 c-9 -22 -8 -24 9 -24 8 0 15 6 15 14 0 22 -17 28 -24 10z"/>
<path d="M13274 4337 c-9 -25 0 -62 16 -62 10 0 15 10 15 34 0 36 -21 54 -31
28z"/>
<path d="M2837 4343 c-13 -12 -7 -23 13 -23 13 0 18 5 14 15 -7 16 -17 19 -27
8z"/>
<path d="M3167 4343 c-13 -12 -7 -23 13 -23 13 0 18 5 14 15 -7 16 -17 19 -27
8z"/>
<path d="M3493 4303 c-16 -6 -17 -33 -3 -33 11 0 26 28 19 34 -2 2 -10 1 -16
-1z"/>
<path d="M3992 4289 c2 -6 8 -10 13 -10 5 0 11 4 13 10 2 6 -4 11 -13 11 -9 0
-15 -5 -13 -11z"/>
<path d="M11126 4343 c-11 -11 -6 -23 9 -23 8 0 15 4 15 9 0 13 -16 22 -24 14z"/>
<path d="M11953 4303 c-16 -6 -17 -33 -3 -33 11 0 26 28 19 34 -2 2 -10 1 -16
-1z"/>
<path d="M12182 4289 c2 -6 8 -10 13 -10 5 0 11 4 13 10 2 6 -4 11 -13 11 -9
0 -15 -5 -13 -11z"/>
<path d="M12314 4337 c-9 -25 0 -62 16 -62 10 0 15 10 15 34 0 36 -21 54 -31
28z"/>
<path d="M12770 4285 c0 -8 4 -15 9 -15 5 0 11 7 15 15 3 9 0 15 -9 15 -8 0
-15 -7 -15 -15z"/>
<path d="M13150 4285 c0 -8 4 -15 9 -15 5 0 11 7 15 15 3 9 0 15 -9 15 -8 0
-15 -7 -15 -15z"/>
<path d="M13402 4289 c2 -6 8 -10 13 -10 5 0 11 4 13 10 2 6 -4 11 -13 11 -9
0 -15 -5 -13 -11z"/>
<path d="M7274 2405 c-9 -23 3 -45 25 -45 20 0 37 32 26 50 -9 15 -45 12 -51
-5z"/>
<path d="M2480 2395 c0 -32 28 -45 46 -21 17 24 7 46 -22 46 -19 0 -24 -5 -24
-25z"/>
<path d="M3870 2395 c0 -32 28 -45 46 -21 17 24 7 46 -22 46 -19 0 -24 -5 -24
-25z"/>
<path d="M2380 2405 c0 -8 5 -15 10 -15 6 0 10 7 10 15 0 8 -4 15 -10 15 -5 0
-10 -7 -10 -15z"/>
<path d="M3130 2400 c0 -5 5 -10 11 -10 5 0 7 5 4 10 -3 6 -8 10 -11 10 -2 0
-4 -4 -4 -10z"/>
<path d="M3505 2400 c-3 -5 -1 -10 4 -10 6 0 11 5 11 10 0 6 -2 10 -4 10 -3 0
-8 -4 -11 -10z"/>
<path d="M3750 2390 c0 -25 4 -31 18 -28 11 2 17 12 17 28 0 16 -6 26 -17 28
-14 3 -18 -3 -18 -28z"/>
<path d="M6545 2400 c-3 -5 -1 -10 4 -10 6 0 11 5 11 10 0 6 -2 10 -4 10 -3 0
-8 -4 -11 -10z"/>
<path d="M6660 2405 c0 -8 5 -15 10 -15 6 0 10 7 10 15 0 8 -4 15 -10 15 -5 0
-10 -7 -10 -15z"/>
<path d="M7045 2400 c-3 -5 -1 -10 4 -10 6 0 11 5 11 10 0 6 -2 10 -4 10 -3 0
-8 -4 -11 -10z"/>
<path d="M10700 2390 c0 -25 4 -31 18 -28 11 2 17 12 17 28 0 16 -6 26 -17 28
-14 3 -18 -3 -18 -28z"/>
<path d="M3642 158 c-16 -16 -15 -43 1 -57 18 -14 27 -4 27 30 0 32 -12 43
-28 27z"/>
<path d="M8580 151 c-15 -29 5 -68 26 -50 8 6 14 19 14 29 0 10 -6 23 -14 29
-12 10 -17 8 -26 -8z"/>
<path d="M10490 150 c0 -51 7 -58 44 -44 11 4 16 19 16 44 0 25 -5 40 -16 44
-37 14 -44 7 -44 -44z"/>
<path d="M11290 185 c0 -9 9 -15 25 -15 16 0 25 6 25 15 0 9 -9 15 -25 15 -16
0 -25 -6 -25 -15z"/>
<path d="M2290 105 c0 -8 4 -15 9 -15 5 0 11 7 15 15 3 9 0 15 -9 15 -8 0 -15
-7 -15 -15z"/>
<path d="M2532 109 c2 -6 8 -10 13 -10 5 0 11 4 13 10 2 6 -4 11 -13 11 -9 0
-15 -5 -13 -11z"/>
<path d="M3054 157 c-9 -25 0 -62 16 -62 10 0 15 10 15 34 0 36 -21 54 -31 28z"/>
<path d="M3504 157 c-9 -25 0 -62 16 -62 10 0 15 10 15 34 0 36 -21 54 -31 28z"/>
<path d="M3776 163 c-11 -11 -6 -23 9 -23 8 0 15 4 15 9 0 13 -16 22 -24 14z"/>
<path d="M4114 157 c-9 -25 0 -62 16 -62 10 0 15 10 15 34 0 36 -21 54 -31 28z"/>
<path d="M6542 109 c2 -6 8 -10 13 -10 5 0 11 4 13 10 2 6 -4 11 -13 11 -9 0
-15 -5 -13 -11z"/>
<path d="M6867 163 c-13 -12 -7 -23 13 -23 13 0 18 5 14 15 -7 16 -17 19 -27
8z"/>
<path d="M7164 157 c-9 -25 0 -62 16 -62 10 0 15 10 15 34 0 36 -21 54 -31 28z"/>
<path d="M7912 158 c-16 -16 -15 -43 1 -57 16 -13 37 4 37 30 0 25 -24 41 -38
27z"/>
<path d="M8326 163 c-11 -11 -6 -23 9 -23 8 0 15 4 15 9 0 13 -16 22 -24 14z"/>
<path d="M10647 164 c-13 -13 -7 -24 14 -24 11 0 19 5 17 12 -5 14 -22 21 -31
12z"/>
<path d="M10954 157 c-9 -25 0 -62 16 -62 10 0 15 10 15 34 0 36 -21 54 -31
28z"/>
<path d="M11446 163 c-11 -11 -6 -23 9 -23 8 0 15 4 15 9 0 13 -16 22 -24 14z"/>
<path d="M11694 156 c-8 -21 -1 -59 13 -63 6 -2 14 5 18 16 12 40 -17 84 -31
47z"/>
<path d="M11824 157 c-9 -25 0 -62 16 -62 10 0 15 10 15 34 0 36 -21 54 -31
28z"/>
<path d="M12402 158 c-16 -16 -15 -43 1 -57 16 -13 37 4 37 30 0 25 -24 41
-38 27z"/>
</g>
</svg>
